<svg width="18" height="18" viewBox="0 0 18 18" fill="none" xmlns="http://www.w3.org/2000/svg">
<path d="M15.9 8.7C15.9 12.6764 12.6764 15.9 8.7 15.9C4.72355 15.9 1.5 12.6764 1.5 8.7C1.5 4.72355 4.72355 1.5 8.7 1.5C12.6764 1.5 15.9 4.72355 15.9 8.7Z" stroke="#D9D9D9" stroke-width="1.5" stroke-linecap="round" stroke-linejoin="round"/>
<path d="M11.0222 12.2157C10.8842 12.2157 10.7552 12.1947 10.6352 12.1527C10.5152 12.1107 10.4012 12.0447 10.2932 11.9547C10.1912 11.8587 10.0802 11.7327 9.96021 11.5767C9.84021 11.4087 9.73221 11.2167 9.63621 11.0007C9.54021 10.7847 9.45021 10.5567 9.36621 10.3167C9.28821 10.0767 9.21321 9.83071 9.14121 9.57871C9.06921 9.32671 8.99721 9.08671 8.92521 8.85871C8.85321 8.62471 8.77521 8.40871 8.69121 8.21071C8.60721 8.01271 8.51421 7.85071 8.41221 7.72471L8.86221 7.86871C8.68821 8.07271 8.52321 8.30971 8.36721 8.57971C8.21721 8.84971 8.07621 9.14671 7.94421 9.47071C7.81221 9.78871 7.69221 10.1307 7.58421 10.4967C7.48221 10.8567 7.38921 11.2257 7.30521 11.6037C7.25721 11.7957 7.17621 11.9397 7.06221 12.0357C6.95421 12.1317 6.79821 12.1797 6.59421 12.1797C6.51621 12.1797 6.42621 12.1617 6.32421 12.1257C6.22821 12.0957 6.12921 12.0267 6.02721 11.9187C5.93121 11.8047 5.83821 11.6367 5.74821 11.4147C5.62821 11.1267 5.51121 10.8207 5.39721 10.4967C5.28921 10.1727 5.18721 9.83971 5.09121 9.49771C5.00121 9.14971 4.92021 8.79871 4.84821 8.44471C4.77621 8.09071 4.71321 7.73971 4.65921 7.39171C4.61121 7.03771 4.57521 6.69871 4.55121 6.37471C4.53921 6.18871 4.58421 6.02971 4.68621 5.89771C4.78821 5.76571 4.97121 5.69971 5.23521 5.69971C5.51121 5.69971 5.71821 5.79271 5.85621 5.97871C5.99421 6.15871 6.07221 6.38071 6.09021 6.64471C6.10821 6.92671 6.13521 7.20271 6.17121 7.47271C6.20721 7.74271 6.24921 8.00971 6.29721 8.27371C6.34521 8.53171 6.40221 8.79271 6.46821 9.05671C6.54021 9.32071 6.62421 9.59371 6.72021 9.87571L6.42321 9.97471C6.53121 9.53671 6.65421 9.12571 6.79221 8.74171C6.93621 8.35771 7.09521 8.00371 7.26921 7.67971C7.44921 7.34971 7.64421 7.06171 7.85421 6.81571C8.00421 6.63571 8.16321 6.49171 8.33121 6.38371C8.49921 6.27571 8.70021 6.22171 8.93421 6.22171C9.12021 6.22171 9.28221 6.28471 9.42021 6.41071C9.56421 6.53071 9.70821 6.74971 9.85221 7.06771C9.94221 7.26571 10.0202 7.50271 10.0862 7.77871C10.1522 8.05471 10.2242 8.34271 10.3022 8.64271C10.3802 8.93671 10.4672 9.22471 10.5632 9.50671C10.6652 9.78271 10.7942 10.0257 10.9502 10.2357L10.4822 10.2627C10.5662 10.0287 10.6382 9.77071 10.6982 9.48871C10.7582 9.20071 10.8122 8.90371 10.8602 8.59771C10.9082 8.29171 10.9562 7.99171 11.0042 7.69771C11.0522 7.40371 11.1002 7.13371 11.1482 6.88771C11.1962 6.64171 11.2562 6.43771 11.3282 6.27571C11.4122 6.06571 11.5112 5.91871 11.6252 5.83471C11.7452 5.74471 11.8952 5.69971 12.0752 5.69971C12.3032 5.69971 12.4742 5.75971 12.5882 5.87971C12.7022 5.99971 12.7652 6.15571 12.7772 6.34771C12.7892 6.53971 12.7622 6.74671 12.6962 6.96871C12.6242 7.22671 12.5552 7.51171 12.4892 7.82371C12.4292 8.13571 12.3692 8.46571 12.3092 8.81371C12.2492 9.15571 12.1862 9.50071 12.1202 9.84871C12.0542 10.1907 11.9792 10.5237 11.8952 10.8477C11.8172 11.1657 11.7242 11.4597 11.6162 11.7297C11.5382 11.9217 11.4452 12.0507 11.3372 12.1167C11.2352 12.1827 11.1302 12.2157 11.0222 12.2157Z" fill="#D9D9D9"/>
<path d="M3.4502 7.60742H13.9502" stroke="#D9D9D9" stroke-width="1.125" stroke-linecap="round"/>
</svg>
