<svg width="24" height="24" viewBox="0 0 24 24" fill="none" xmlns="http://www.w3.org/2000/svg">
<g filter="url(#filter0_d_47_10860)">
<path fill-rule="evenodd" clip-rule="evenodd" d="M3.50539 15.8713C2.57573 14.8546 2.8139 13.2407 3.9976 12.5359L19.4991 3.30639C20.5308 2.69209 21.8652 3.0305 22.4795 4.06225L22.6936 4.42186C23.3079 5.4536 22.9695 6.78799 21.9378 7.40228L16.9847 10.3513L17.6409 11.4535C18.2552 12.4853 17.9168 13.8197 16.885 14.434L12.1976 17.2248C12.0103 17.3363 11.8074 17.419 11.5955 17.4702L9.71766 17.9235C8.47222 18.2241 7.15647 18.0403 6.01614 17.4262L4.19529 16.4455C3.98037 16.3298 3.78648 16.1786 3.62175 15.9985L3.50539 15.8713ZM14.0136 9.61122C13.8902 9.40391 13.6221 9.33592 13.4148 9.45935L5.25804 14.3158C5.18158 14.3614 5.16619 14.4656 5.22625 14.5313L7.0471 15.512C7.73308 15.8814 8.50152 15.9804 9.20748 15.81L11.0211 15.3722C11.0637 15.3619 11.1045 15.3453 11.1421 15.3229L15.3974 12.7893C15.6047 12.6659 15.6727 12.3978 15.5493 12.1904L14.0136 9.61122ZM15.8381 8.01652C15.7388 8.07564 15.7062 8.20407 15.7653 8.30338L-nan -nanL15.7653 8.30338C15.8245 8.40268 15.9529 8.43525 16.0522 8.37613L20.6457 5.6412C20.745 5.58207 20.7775 5.45364 20.7184 5.35434L-nan -nanL20.7184 5.35434C20.6593 5.25503 20.5309 5.22246 20.4316 5.28159L15.8381 8.01652Z" fill="#D9D9D9"/>
<path fill-rule="evenodd" clip-rule="evenodd" d="M20.6589 19.3204H3.18432C2.94305 19.3204 2.74746 19.516 2.74746 19.7573C2.74746 19.9986 2.94305 20.1942 3.18432 20.1942H20.6589C20.9001 20.1942 21.0957 19.9986 21.0957 19.7573C21.0957 19.516 20.9001 19.3204 20.6589 19.3204ZM3.18432 17.573C1.97795 17.573 1 18.5509 1 19.7573C1 20.9637 1.97795 21.9416 3.18432 21.9416H20.6589C21.8652 21.9416 22.8432 20.9637 22.8432 19.7573C22.8432 18.5509 21.8652 17.573 20.6589 17.573H3.18432Z" fill="#D9D9D9"/>
</g>
<defs>
<filter id="filter0_d_47_10860" x="-0.96" y="0" width="25.92" height="25.92" filterUnits="userSpaceOnUse" color-interpolation-filters="sRGB">
<feFlood flood-opacity="0" result="BackgroundImageFix"/>
<feColorMatrix in="SourceAlpha" type="matrix" values="0 0 0 0 0 0 0 0 0 0 0 0 0 0 0 0 0 0 127 0" result="hardAlpha"/>
<feOffset dy="0.96"/>
<feGaussianBlur stdDeviation="0.48"/>
<feComposite in2="hardAlpha" operator="out"/>
<feColorMatrix type="matrix" values="0 0 0 0 0 0 0 0 0 0 0 0 0 0 0 0 0 0 0.05 0"/>
<feBlend mode="normal" in2="BackgroundImageFix" result="effect1_dropShadow_47_10860"/>
<feBlend mode="normal" in="SourceGraphic" in2="effect1_dropShadow_47_10860" result="shape"/>
</filter>
</defs>
</svg>
