<svg width="18" height="18" viewBox="0 0 18 18" fill="none" xmlns="http://www.w3.org/2000/svg">
<g filter="url(#filter0_d_47_10858)">
<path fill-rule="evenodd" clip-rule="evenodd" d="M2.8221 11.3609C2.14598 10.6215 2.3192 9.44776 3.18007 8.9352L14.4539 2.22283C15.2042 1.77607 16.1747 2.02219 16.6215 2.77255L16.7772 3.03408C17.2239 3.78444 16.9778 4.7549 16.2275 5.20166L12.6252 7.34642L13.1025 8.14802C13.5492 8.89838 13.3031 9.86884 12.5528 10.3156L9.14371 12.3453C9.00752 12.4264 8.85991 12.4866 8.70583 12.5238L7.34012 12.8534C6.43434 13.0721 5.47743 12.9384 4.6481 12.4918L3.32385 11.7786C3.16754 11.6944 3.02653 11.5845 2.90673 11.4535L2.8221 11.3609ZM10.4645 6.80816C10.3747 6.65739 10.1797 6.60794 10.0289 6.69771L4.09676 10.2297C4.04115 10.2628 4.02996 10.3386 4.07363 10.3864L5.39789 11.0996C5.89678 11.3683 6.45565 11.4403 6.96907 11.3164L8.28808 10.998C8.31904 10.9905 8.3487 10.9784 8.37606 10.9621L11.4708 9.11949C11.6216 9.02973 11.6711 8.83473 11.5813 8.68396L10.4645 6.80816ZM11.7913 5.64838C11.7191 5.69138 11.6954 5.78478 11.7384 5.857L-nan -nanL11.7384 5.857C11.7814 5.92922 11.8748 5.95291 11.947 5.90991L15.2878 3.92087C15.36 3.87787 15.3837 3.78447 15.3407 3.71225L-nan -nanL15.3407 3.71225C15.2977 3.64003 15.2043 3.61634 15.132 3.65934L11.7913 5.64838Z" fill="#D9D9D9"/>
<path fill-rule="evenodd" clip-rule="evenodd" d="M15.2974 13.8694H2.5886C2.41312 13.8694 2.27088 14.0117 2.27088 14.1871C2.27088 14.3626 2.41312 14.5048 2.5886 14.5048H15.2974C15.4728 14.5048 15.6151 14.3626 15.6151 14.1871C15.6151 14.0117 15.4728 13.8694 15.2974 13.8694ZM2.5886 12.5985C1.71124 12.5985 1 13.3098 1 14.1871C1 15.0645 1.71124 15.7757 2.5886 15.7757H15.2974C16.1747 15.7757 16.886 15.0645 16.886 14.1871C16.886 13.3098 16.1747 12.5985 15.2974 12.5985H2.5886Z" fill="#D9D9D9"/>
</g>
<defs>
<filter id="filter0_d_47_10858" x="-0.72" y="0" width="19.44" height="19.44" filterUnits="userSpaceOnUse" color-interpolation-filters="sRGB">
<feFlood flood-opacity="0" result="BackgroundImageFix"/>
<feColorMatrix in="SourceAlpha" type="matrix" values="0 0 0 0 0 0 0 0 0 0 0 0 0 0 0 0 0 0 127 0" result="hardAlpha"/>
<feOffset dy="0.72"/>
<feGaussianBlur stdDeviation="0.36"/>
<feComposite in2="hardAlpha" operator="out"/>
<feColorMatrix type="matrix" values="0 0 0 0 0 0 0 0 0 0 0 0 0 0 0 0 0 0 0.05 0"/>
<feBlend mode="normal" in2="BackgroundImageFix" result="effect1_dropShadow_47_10858"/>
<feBlend mode="normal" in="SourceGraphic" in2="effect1_dropShadow_47_10858" result="shape"/>
</filter>
</defs>
</svg>
