<svg width="18" height="18" viewBox="0 0 18 18" fill="none" xmlns="http://www.w3.org/2000/svg">
<g clip-path="url(#clip0_47_10847)">
<path fill-rule="evenodd" clip-rule="evenodd" d="M1.31817 13.7096C0.56326 12.8891 0.752047 11.5823 1.70832 11.009L14.2314 3.50106C15.0649 3.00135 16.1457 3.27195 16.6454 4.10546L16.8196 4.39598C17.3193 5.22949 17.0487 6.31028 16.2152 6.81L12.2138 9.20895L12.7476 10.0994C13.2473 10.9329 12.9767 12.0137 12.1432 12.5134L8.3564 14.7837C8.20511 14.8744 8.04104 14.9418 7.8697 14.9837L6.35102 15.3552C5.34378 15.6016 4.27845 15.4561 3.35403 14.9619L1.87794 14.1727C1.70372 14.0795 1.54643 13.9577 1.41266 13.8123L1.31817 13.7096ZM9.8074 8.61728C9.70699 8.4498 9.48983 8.39543 9.32235 8.49584L2.73282 12.4464C2.67104 12.4835 2.65885 12.5679 2.70761 12.6209L4.18371 13.4101C4.7398 13.7074 5.36197 13.7856 5.9329 13.646L7.39965 13.2872C7.43408 13.2788 7.46705 13.2652 7.49744 13.247L10.9352 11.186C11.1026 11.0856 11.157 10.8684 11.0566 10.7009L9.8074 8.61728ZM11.2801 7.32214C11.1998 7.37024 11.1738 7.47426 11.2219 7.55448L-nan -nanL11.2219 7.55448C11.27 7.63471 11.374 7.66075 11.4542 7.61266L15.1651 5.38787C15.2454 5.33978 15.2714 5.23575 15.2233 5.15553L-nan -nanL15.2233 5.15553C15.1752 5.07531 15.0712 5.04926 14.991 5.09736L11.2801 7.32214Z" fill="#D9D9D9"/>
</g>
<defs>
<clipPath id="clip0_47_10847">
<rect width="18" height="18" fill="white"/>
</clipPath>
</defs>
</svg>
