<svg width="18" height="18" viewBox="0 0 18 18" fill="none" xmlns="http://www.w3.org/2000/svg">
<path d="M1.43994 16.2301L1.44029 13.5298C1.44051 11.6246 2.98512 10.0801 4.89035 10.0801H10.2898C10.704 10.0801 11.0399 10.4159 11.0399 10.8301C11.0399 11.2314 10.7248 11.559 10.3285 11.5791L10.2898 11.5802H4.89035C3.81348 11.5802 2.94036 12.4531 2.94023 13.53L2.94006 16.2301C2.94001 16.6443 2.60417 16.9802 2.19 16.9802C1.77582 16.9801 1.43994 16.6443 1.43994 16.2301ZM10.4399 4.53014C10.4399 3.45318 9.56695 2.5802 8.49 2.5802C7.41305 2.5802 6.54006 3.45318 6.54006 4.53014C6.54006 5.60709 7.41305 6.48008 8.49 6.48008C9.56695 6.48008 10.4399 5.60709 10.4399 4.53014ZM11.9401 4.53014C11.9401 6.43552 10.3954 7.98019 8.49 7.9802C6.58462 7.9802 5.03994 6.43552 5.03994 4.53014C5.03994 2.62475 6.58462 1.08008 8.49 1.08008C10.3954 1.08008 11.9401 2.62475 11.9401 4.53014Z" fill="#D9D9D9"/>
<path fill-rule="evenodd" clip-rule="evenodd" d="M9.05701 15.8026C8.69465 15.4088 8.78527 14.7815 9.24428 14.5063L15.2554 10.9025C15.6555 10.6626 16.1742 10.7925 16.4141 11.1926L16.4977 11.3321C16.7376 11.7321 16.6077 12.2509 16.2076 12.4908L14.2869 13.6423L14.5431 14.0697C14.783 14.4698 14.6531 14.9886 14.253 15.2284L12.4354 16.3182C12.3627 16.3617 12.284 16.3941 12.2017 16.4142L11.4728 16.5925C10.9893 16.7108 10.4779 16.6409 10.0342 16.4037L9.3257 16.0249C9.24207 15.9802 9.16657 15.9217 9.10236 15.8519L9.05701 15.8026ZM13.1318 13.3583C13.0836 13.2779 12.9794 13.2518 12.899 13.3L9.73604 15.1963C9.70639 15.2141 9.70053 15.2546 9.72394 15.28L10.4325 15.6588C10.6994 15.8015 10.998 15.8391 11.2721 15.7721L11.9761 15.5998C11.9926 15.5958 12.0085 15.5893 12.0231 15.5805L13.6732 14.5913C13.7536 14.5431 13.7797 14.4388 13.7315 14.3584L13.1318 13.3583ZM13.8387 12.7366C13.8002 12.7597 13.7877 12.8096 13.8108 12.8481L-nan -nanL13.8108 12.8481C13.8339 12.8866 13.8838 12.8991 13.9223 12.8761L15.7036 11.8082C15.7421 11.7851 15.7546 11.7351 15.7315 11.6966L-nan -nanL15.7315 11.6966C15.7084 11.6581 15.6585 11.6456 15.62 11.6687L13.8387 12.7366Z" fill="#D9D9D9"/>
</svg>
