<svg width="24" height="24" viewBox="0 0 24 24" fill="none" xmlns="http://www.w3.org/2000/svg">
<g clip-path="url(#clip0_47_10849)">
<path fill-rule="evenodd" clip-rule="evenodd" d="M1.7574 18.2793C0.750851 17.1853 1.00257 15.4429 2.27759 14.6785L18.9751 4.66792C20.0864 4.00164 21.5275 4.36244 22.1937 5.47379L22.426 5.86114C23.0923 6.97249 22.7315 8.41355 21.6201 9.07983L16.2849 12.2784L16.9967 13.4657C17.6629 14.577 17.3021 16.0181 16.1908 16.6844L11.1417 19.7114C10.94 19.8324 10.7212 19.9223 10.4928 19.9782L8.46786 20.4735C7.12488 20.802 5.70444 20.608 4.47188 19.949L2.50376 18.8967C2.27146 18.7725 2.06174 18.6101 1.88339 18.4163L1.7574 18.2793ZM13.0764 11.4895C12.9425 11.2662 12.6529 11.1937 12.4296 11.3276L3.64359 16.5951C3.56123 16.6445 3.54497 16.757 3.60999 16.8277L5.57811 17.88C6.31957 18.2764 7.14913 18.3807 7.91037 18.1945L9.86604 17.7161C9.91194 17.7049 9.9559 17.6868 9.99643 17.6625L14.58 14.9145C14.8034 14.7806 14.8758 14.4911 14.742 14.2678L13.0764 11.4895ZM15.0399 9.76269C14.933 9.82682 14.8982 9.96552 14.9624 10.0725L-nan -nanL14.9624 10.0725C15.0265 10.1794 15.1652 10.2142 15.2721 10.15L20.22 7.18367C20.327 7.11954 20.3617 6.98084 20.2976 6.87388L-nan -nanL20.2976 6.87388C20.2335 6.76691 20.0948 6.73218 19.9878 6.79631L15.0399 9.76269Z" fill="#D9D9D9"/>
</g>
<defs>
<clipPath id="clip0_47_10849">
<rect width="24" height="24" fill="white"/>
</clipPath>
</defs>
</svg>
