<svg width="24" height="24" viewBox="0 0 24 24" fill="none" xmlns="http://www.w3.org/2000/svg">
<path d="M1.91992 21.64L1.92039 18.0396C1.92068 15.4992 3.98016 13.4399 6.52047 13.4399H13.7198C14.2721 13.4399 14.7198 13.8877 14.7198 14.44C14.7198 14.975 14.2997 15.4119 13.7713 15.4387L13.7198 15.4401H6.52047C5.08464 15.4401 3.92047 16.604 3.92031 18.0398L3.92008 21.64C3.92002 22.1923 3.47223 22.6401 2.92 22.6401C2.36775 22.64 1.91992 22.1923 1.91992 21.64ZM13.9199 6.04002C13.9199 4.60408 12.7559 3.4401 11.32 3.4401C9.88406 3.4401 8.72008 4.60408 8.72008 6.04002C8.72008 7.47596 9.88406 8.63994 11.32 8.63994C12.7559 8.63994 13.9199 7.47596 13.9199 6.04002ZM15.9201 6.04002C15.9201 8.58053 13.8605 10.6401 11.32 10.6401C8.77949 10.6401 6.71992 8.58053 6.71992 6.04002C6.71992 3.49951 8.77949 1.43994 11.32 1.43994C13.8605 1.43994 15.9201 3.49951 15.9201 6.04002Z" fill="#D9D9D9"/>
<path fill-rule="evenodd" clip-rule="evenodd" d="M12.076 21.07C11.5929 20.5448 11.7137 19.7085 12.3257 19.3416L20.3405 14.5365C20.8739 14.2167 21.5656 14.3899 21.8855 14.9233L21.9969 15.1092C22.3167 15.6427 22.1436 16.3344 21.6101 16.6542L19.0492 18.1895L19.3909 18.7594C19.7107 19.2929 19.5375 19.9846 19.004 20.3044L16.5805 21.7574C16.4837 21.8154 16.3787 21.8586 16.269 21.8854L15.297 22.1232C14.6524 22.2809 13.9706 22.1877 13.379 21.8714L12.4343 21.3663C12.3228 21.3067 12.2221 21.2287 12.1365 21.1357L12.076 21.07ZM17.5091 17.8109C17.4449 17.7037 17.3059 17.6689 17.1987 17.7332L12.9814 20.2615C12.9419 20.2852 12.934 20.3393 12.9653 20.3732L13.91 20.8783C14.2659 21.0686 14.664 21.1186 15.0294 21.0292L15.9682 20.7996C15.9902 20.7942 16.0113 20.7856 16.0307 20.7739L18.2309 19.4549C18.3381 19.3906 18.3729 19.2516 18.3086 19.1444L17.5091 17.8109ZM18.4516 16.982C18.4003 17.0128 18.3836 17.0793 18.4144 17.1307L-nan -nanL18.4144 17.1307C18.4452 17.182 18.5117 17.1987 18.5631 17.1679L20.9381 15.7441C20.9894 15.7133 21.0061 15.6467 20.9753 15.5954L-nan -nanL20.9753 15.5954C20.9445 15.544 20.8779 15.5273 20.8266 15.5581L18.4516 16.982Z" fill="#D9D9D9"/>
</svg>
