<svg width="18" height="18" viewBox="0 0 18 18" fill="none" xmlns="http://www.w3.org/2000/svg">
<path d="M2.33908 12.6499L1.72719 12.2162L1.72719 12.2162L2.33908 12.6499ZM3.32034 9.66801L2.57034 9.65944V9.66801H3.32034ZM3.34094 7.86512L4.09094 7.87369V7.86512H3.34094ZM15.6662 12.6644L16.2865 12.2428L16.2864 12.2428L15.6662 12.6644ZM14.7218 9.66801L13.9718 9.65899V9.66801H14.7218ZM14.7424 7.95446L15.4924 7.96348V7.95446H14.7424ZM6.75 15.4499C6.33579 15.4499 6 15.7857 6 16.1999C6 16.6142 6.33579 16.9499 6.75 16.9499V15.4499ZM11.25 16.9499C11.6642 16.9499 12 16.6142 12 16.1999C12 15.7857 11.6642 15.4499 11.25 15.4499V16.9499ZM2.33908 12.6499L2.95097 13.0836C3.51355 12.2899 4.07034 11.108 4.07034 9.66801H3.32034H2.57034C2.57034 10.7164 2.16325 11.601 1.72719 12.2162L2.33908 12.6499ZM3.32034 9.66801L4.07029 9.67658L4.09089 7.87369L3.34094 7.86512L2.59099 7.85655L2.57039 9.65944L3.32034 9.66801ZM15.6662 12.6644L16.2864 12.2428C15.8685 11.6279 15.4718 10.7335 15.4718 9.66801H14.7218H13.9718C13.9718 11.1081 14.5058 12.2914 15.0459 13.086L15.6662 12.6644ZM14.7218 9.66801L15.4718 9.67702L15.4924 7.96348L14.7424 7.95446L13.9925 7.94545L13.9719 9.659L14.7218 9.66801ZM14.7424 7.95446H15.4924C15.4924 4.19105 12.6338 1.05005 9 1.05005V1.80005V2.55005C11.7091 2.55005 13.9924 4.9199 13.9924 7.95446H14.7424ZM15.3225 13.4999V14.2499C15.9204 14.2499 16.2688 13.8053 16.4007 13.4731C16.5356 13.1335 16.5636 12.6505 16.2865 12.2428L15.6662 12.6644L15.0459 13.086C15.0085 13.031 15.0013 12.9838 15.0002 12.9632C14.9991 12.9432 15.0023 12.9304 15.0066 12.9194C15.0104 12.9099 15.0253 12.8765 15.0707 12.8383C15.1217 12.7954 15.2099 12.7499 15.3225 12.7499V13.4999ZM3.34094 7.86512H4.09094C4.09094 4.8799 6.3369 2.55005 9 2.55005V1.80005V1.05005C5.41228 1.05005 2.59094 4.15106 2.59094 7.86512H3.34094ZM2.67832 13.4999V12.7499C2.79339 12.7499 2.88269 12.7972 2.93311 12.8404C2.9778 12.8787 2.99149 12.9114 2.99447 12.9192C2.99803 12.9284 3.00096 12.9399 2.99971 12.9592C2.99842 12.9792 2.9907 13.0276 2.95097 13.0836L2.33908 12.6499L1.72719 12.2162C1.4373 12.6252 1.46297 13.1163 1.59473 13.4584C1.7232 13.7919 2.07068 14.2499 2.67832 14.2499V13.4999ZM15.3225 13.4999V12.7499H2.67832V13.4999V14.2499H15.3225V13.4999ZM6.75 16.1999V16.9499H11.25V16.1999V15.4499H6.75V16.1999Z" fill="#D9D9D9"/>
</svg>
