<svg width="18" height="18" viewBox="0 0 18 18" fill="none" xmlns="http://www.w3.org/2000/svg">
<path d="M6.56702 3.1916L7.52033 1.82162C7.66053 1.62013 7.89047 1.5 8.13595 1.5H9.48975C9.73431 1.5 9.96351 1.61924 10.1039 1.8195L11.0472 3.16524M6.56702 3.1916C6.30688 3.56273 5.87447 3.74459 5.41551 3.71217M6.56702 3.1916C6.30561 3.56184 5.87447 3.7461 5.41551 3.71217M5.41551 3.71217L3.72869 3.60627C3.48805 3.59116 3.25482 3.69266 3.10189 3.87906L2.24651 4.92156C2.08436 5.11918 2.03403 5.38578 2.11298 5.62892L2.60486 7.14378M2.60486 7.14378C2.67156 7.36003 2.68009 7.5917 2.63236 7.8105M2.60486 7.14378C2.6725 7.35965 2.68072 7.59085 2.63204 7.81274M2.63236 7.8105C2.584 8.02672 2.48032 8.23087 2.32639 8.39619M2.63236 7.8105L2.63204 7.81274M2.32639 8.39619L1.21181 9.59494C1.04051 9.77918 0.972987 10.037 1.032 10.2816L1.33392 11.5327C1.39274 11.7765 1.56947 11.9747 1.8049 12.061L3.33629 12.6222C3.54996 12.7049 3.73456 12.8393 3.87427 13.0086M2.32639 8.39619C2.48127 8.23222 2.584 8.02873 2.63204 7.81274M3.87427 13.0086C4.01303 13.1784 4.10754 13.3834 4.14421 13.6053M3.87427 13.0086C4.01429 13.1784 4.10912 13.3828 4.14421 13.6053M3.87427 13.0086L3.87205 13.0062C3.86289 12.9951 3.85309 12.9835 3.84361 12.9727M4.14421 13.6053L4.40495 15.2069C4.4449 15.4523 4.60387 15.662 4.82938 15.7667L6.05033 16.3336C6.26862 16.4349 6.5223 16.4253 6.73235 16.3078L8.16768 15.5048M8.16768 15.5048C8.3665 15.3931 8.58839 15.3371 8.81029 15.3369M8.16768 15.5048C8.24639 15.46 8.32889 15.4243 8.4136 15.3975C8.54225 15.3567 8.67627 15.3366 8.81029 15.3369M8.81029 15.3369C8.92566 15.3371 9.04103 15.3524 9.15356 15.3825C9.25818 15.4105 9.35996 15.4514 9.45637 15.5048M8.81029 15.3369C9.03313 15.3366 9.25629 15.3925 9.45637 15.5048M9.45637 15.5048L10.959 16.3182C11.1699 16.4324 11.4228 16.4388 11.6393 16.3355L12.8544 15.7551C13.0791 15.6478 13.2358 15.4359 13.2728 15.1897L13.5064 13.6335M13.5064 13.6335C13.5415 13.4103 13.6347 13.2039 13.7732 13.0326M13.5064 13.6335C13.5402 13.4098 13.6341 13.2037 13.7732 13.0326M13.7732 13.0326C13.9107 12.8631 14.0931 12.728 14.3055 12.6445M13.7732 13.0326C13.9104 12.8624 14.0921 12.727 14.3055 12.6445M14.3055 12.6445L15.8527 12.0381C16.0837 11.9476 16.255 11.7487 16.3102 11.5068L16.5995 10.2405C16.6546 9.99924 16.5871 9.74637 16.4193 9.5646L15.298 8.35047M15.298 8.35047C15.1412 8.18458 15.0318 7.98641 14.9787 7.7758M15.298 8.35047C15.2243 8.27299 15.1611 8.18829 15.1096 8.09848C15.0508 7.9965 15.0069 7.88795 14.9787 7.7758M14.9787 7.7758C14.9266 7.5667 14.9297 7.34512 14.9958 7.13064L15.4808 5.57615C15.5561 5.3348 15.5047 5.07176 15.3441 4.87647L14.5098 3.86171C14.3551 3.67354 14.1186 3.57223 13.8757 3.59003L12.2082 3.71217M12.2082 3.71217C11.98 3.72828 11.7556 3.68481 11.5558 3.59129M12.2082 3.71217C11.9797 3.72921 11.7556 3.68539 11.5558 3.59129M11.5558 3.59129C11.3548 3.49657 11.1784 3.35092 11.0472 3.16524M11.5558 3.59129C11.3545 3.49692 11.1778 3.35166 11.0472 3.16524M2.63204 7.81274L2.63268 7.80946M11.3519 9.00796C11.3519 10.4067 10.1925 11.5405 8.76256 11.5405C7.33258 11.5405 6.17317 10.4067 6.17317 9.00796C6.17317 7.60925 7.33258 6.4754 8.76256 6.4754C10.1925 6.4754 11.3519 7.60925 11.3519 9.00796Z" stroke="#D9D9D9" stroke-width="1.5"/>
</svg>
