<svg width="100" height="100" viewBox="0 0 100 100" fill="none" xmlns="http://www.w3.org/2000/svg">
<path d="M12.9939 70.2756L9.59453 67.8661L9.59453 67.8661L12.9939 70.2756ZM18.4454 53.7094L14.279 53.6618L14.2787 53.6856V53.7094H18.4454ZM18.5598 43.6934L22.7262 43.741L22.7264 43.7172V43.6934H18.5598ZM87.0333 70.356L90.4793 68.0137L90.4793 68.0137L87.0333 70.356ZM81.7869 53.7094L77.6206 53.6593L77.6203 53.6844V53.7094H81.7869ZM81.9014 44.1897L86.0677 44.2398L86.068 44.2148V44.1897H81.9014ZM37.499 85.8313C35.1978 85.8313 33.3324 87.6968 33.3324 89.9979C33.3324 92.2991 35.1978 94.1646 37.499 94.1646V85.8313ZM62.499 94.1646C64.8002 94.1646 66.6657 92.2991 66.6657 89.9979C66.6657 87.6968 64.8002 85.8313 62.499 85.8313V94.1646ZM12.9939 70.2756L16.3933 72.685C19.5187 68.2754 22.612 61.7094 22.612 53.7094H18.4454H14.2787C14.2787 59.5341 12.0171 64.4483 9.59453 67.8661L12.9939 70.2756ZM18.4454 53.7094L22.6118 53.757L22.7262 43.741L18.5598 43.6934L14.3934 43.6458L14.279 53.6618L18.4454 53.7094ZM87.0333 70.356L90.4793 68.0137C88.1573 64.5975 85.9536 59.6287 85.9536 53.7094H81.7869H77.6203C77.6203 61.7097 80.5868 68.2838 83.5873 72.6982L87.0333 70.356ZM81.7869 53.7094L85.9533 53.7595L86.0677 44.2398L81.9014 44.1897L77.735 44.1396L77.6206 53.6593L81.7869 53.7094ZM81.9014 44.1897H86.068C86.068 23.2819 70.1866 5.83187 49.999 5.83187V9.99854V14.1652C65.0498 14.1652 77.7347 27.331 77.7347 44.1897H81.9014ZM85.124 74.9979V79.1646C88.4457 79.1646 90.3811 76.6943 91.114 74.8491C91.8634 72.9621 92.0189 70.279 90.4793 68.0137L87.0333 70.356L83.5872 72.6982C83.3798 72.3929 83.3396 72.1307 83.3335 72.0159C83.3276 71.9051 83.3451 71.8336 83.3692 71.7729C83.3901 71.7201 83.4728 71.5342 83.725 71.322C84.0082 71.0837 84.4986 70.8313 85.124 70.8313V74.9979ZM18.5598 43.6934H22.7264C22.7264 27.1088 35.204 14.1652 49.999 14.1652V9.99854V5.83187C30.0672 5.83187 14.3931 23.0597 14.3931 43.6934H18.5598ZM14.8786 74.9979V70.8313C15.5178 70.8313 16.014 71.0937 16.2941 71.3339C16.5423 71.5467 16.6184 71.7285 16.635 71.7715C16.6548 71.8228 16.671 71.8868 16.6641 71.9939C16.6569 72.1047 16.614 72.3735 16.3933 72.685L12.9939 70.2756L9.59453 67.8661C7.98402 70.1383 8.12664 72.8667 8.85864 74.767C9.57237 76.6198 11.5028 79.1646 14.8786 79.1646V74.9979ZM85.124 74.9979V70.8313H14.8786V74.9979V79.1646H85.124V74.9979ZM37.499 89.9979V94.1646H62.499V89.9979V85.8313H37.499V89.9979Z" fill="#D9D9D9"/>
<circle cx="89.0615" cy="10.9346" r="7.8125" fill="#FF4500"/>
</svg>
