<svg width="100" height="100" viewBox="0 0 100 100" fill="none" xmlns="http://www.w3.org/2000/svg">
<path d="M9.99951 22.5H89.9995M39.9995 72.5V42.5M59.9995 72.5V42.5M69.9995 92.5H29.9995C24.4767 92.5 19.9995 88.0229 19.9995 82.5V27.5C19.9995 24.7386 22.2381 22.5 24.9995 22.5H74.9995C77.7609 22.5 79.9995 24.7386 79.9995 27.5V82.5C79.9995 88.0229 75.5224 92.5 69.9995 92.5ZM39.9995 22.5H59.9995C62.7609 22.5 64.9995 20.2614 64.9995 17.5V12.5C64.9995 9.73858 62.7609 7.5 59.9995 7.5H39.9995C37.2381 7.5 34.9995 9.73858 34.9995 12.5V17.5C34.9995 20.2614 37.2381 22.5 39.9995 22.5Z" stroke="#D9D9D9" stroke-width="8.33333" stroke-linecap="round" stroke-linejoin="round"/>
</svg>
