<svg width="100" height="100" viewBox="0 0 100 100" fill="none" xmlns="http://www.w3.org/2000/svg">
<path d="M88.3335 48.3335C88.3335 70.4249 70.4249 88.3335 48.3335 88.3335C26.2421 88.3335 8.3335 70.4249 8.3335 48.3335C8.3335 26.2421 26.2421 8.3335 48.3335 8.3335C70.4249 8.3335 88.3335 26.2421 88.3335 48.3335Z" stroke="#D9D9D9" stroke-width="8.33333" stroke-linecap="round" stroke-linejoin="round"/>
<path d="M61.2354 67.865C60.4688 67.865 59.7521 67.7484 59.0854 67.515C58.4188 67.2817 57.7854 66.915 57.1854 66.415C56.6188 65.8817 56.0021 65.1817 55.3354 64.315C54.6688 63.3817 54.0688 62.315 53.5354 61.115C53.0021 59.915 52.5021 58.6484 52.0354 57.315C51.6021 55.9817 51.1854 54.615 50.7854 53.215C50.3854 51.815 49.9854 50.4817 49.5854 49.215C49.1854 47.915 48.7521 46.715 48.2854 45.615C47.8188 44.515 47.3021 43.615 46.7354 42.915L49.2354 43.715C48.2688 44.8484 47.3521 46.165 46.4854 47.665C45.6521 49.165 44.8688 50.815 44.1354 52.615C43.4021 54.3817 42.7354 56.2817 42.1354 58.315C41.5688 60.315 41.0521 62.365 40.5854 64.465C40.3188 65.5317 39.8688 66.3317 39.2354 66.865C38.6354 67.3984 37.7688 67.665 36.6354 67.665C36.2021 67.665 35.7021 67.565 35.1354 67.365C34.6021 67.1984 34.0521 66.815 33.4854 66.215C32.9521 65.5817 32.4354 64.6484 31.9354 63.415C31.2688 61.815 30.6188 60.115 29.9854 58.315C29.3854 56.515 28.8188 54.665 28.2854 52.765C27.7854 50.8317 27.3354 48.8817 26.9354 46.915C26.5354 44.9484 26.1854 42.9984 25.8854 41.065C25.6188 39.0984 25.4188 37.215 25.2854 35.415C25.2188 34.3817 25.4688 33.4984 26.0354 32.765C26.6021 32.0317 27.6188 31.665 29.0854 31.665C30.6188 31.665 31.7688 32.1817 32.5354 33.215C33.3021 34.215 33.7354 35.4484 33.8354 36.915C33.9354 38.4817 34.0854 40.015 34.2854 41.515C34.4854 43.015 34.7188 44.4984 34.9854 45.965C35.2521 47.3984 35.5688 48.8484 35.9354 50.315C36.3354 51.7817 36.8021 53.2984 37.3354 54.865L35.6854 55.415C36.2854 52.9817 36.9688 50.6984 37.7354 48.565C38.5354 46.4317 39.4188 44.465 40.3854 42.665C41.3854 40.8317 42.4688 39.2317 43.6354 37.865C44.4688 36.865 45.3521 36.065 46.2854 35.465C47.2188 34.865 48.3354 34.565 49.6354 34.565C50.6688 34.565 51.5688 34.915 52.3354 35.615C53.1354 36.2817 53.9354 37.4984 54.7354 39.265C55.2354 40.365 55.6688 41.6817 56.0354 43.215C56.4021 44.7484 56.8021 46.3484 57.2354 48.015C57.6688 49.6484 58.1521 51.2484 58.6854 52.815C59.2521 54.3484 59.9688 55.6984 60.8354 56.865L58.2354 57.015C58.7021 55.715 59.1021 54.2817 59.4354 52.715C59.7688 51.115 60.0688 49.465 60.3354 47.765C60.6021 46.065 60.8688 44.3984 61.1354 42.765C61.4021 41.1317 61.6688 39.6317 61.9354 38.265C62.2021 36.8984 62.5354 35.765 62.9354 34.865C63.4021 33.6984 63.9521 32.8817 64.5854 32.415C65.2521 31.915 66.0854 31.665 67.0854 31.665C68.3521 31.665 69.3021 31.9984 69.9354 32.665C70.5688 33.3317 70.9188 34.1984 70.9854 35.265C71.0521 36.3317 70.9021 37.4817 70.5354 38.715C70.1354 40.1484 69.7521 41.7317 69.3854 43.465C69.0521 45.1984 68.7188 47.0317 68.3854 48.965C68.0521 50.865 67.7021 52.7817 67.3354 54.715C66.9688 56.615 66.5521 58.465 66.0854 60.265C65.6521 62.0317 65.1354 63.665 64.5354 65.165C64.1021 66.2317 63.5854 66.9484 62.9854 67.315C62.4188 67.6817 61.8354 67.865 61.2354 67.865Z" fill="#D9D9D9"/>
<path d="M19.1694 42.2651H77.5028" stroke="#D9D9D9" stroke-width="6.25" stroke-linecap="round"/>
</svg>
