<svg width="100" height="100" viewBox="0 0 100 100" fill="none" xmlns="http://www.w3.org/2000/svg">
<path d="M25.0005 60L15.0005 60C12.2391 60 10.0005 57.7614 10.0005 55L10.0005 18.3333C10.0005 13.731 13.7314 10 18.3338 10L55.0005 10C57.7619 10 60.0005 12.2386 60.0005 15L60.0005 25M50.0005 90L80.0005 90C85.5233 90 90.0005 85.5228 90.0005 80L90.0005 50C90.0005 44.4772 85.5233 40 80.0005 40L50.0005 40C44.4776 40 40.0005 44.4772 40.0005 50L40.0005 80C40.0005 85.5228 44.4776 90 50.0005 90Z" stroke="#D9D9D9" stroke-width="8.33333" stroke-linecap="round"/>
</svg>
