<svg width="100" height="100" viewBox="0 0 100 100" fill="none" xmlns="http://www.w3.org/2000/svg">
<g filter="url(#filter0_d_47_10978)">
<path d="M31.3503 71.4006C29.9503 69.6006 28.2003 65.9506 25.1503 61.4006C23.4003 58.9006 19.1003 54.1506 17.8003 51.7006C16.8632 50.2118 16.5913 48.3989 17.0503 46.7006C17.8351 43.4717 20.8981 41.3297 24.2003 41.7006C26.7543 42.2137 29.1015 43.4655 30.9503 45.3006C32.2412 46.5165 33.4287 47.8377 34.5003 49.2506C35.3003 50.2506 35.5003 50.6506 36.4003 51.8006C37.3003 52.9506 37.9003 54.1006 37.4503 52.4006C37.1003 49.9006 36.5003 45.7006 35.6503 41.9506C35.0003 39.1006 34.8503 38.6506 34.2503 36.5006C33.6503 34.3506 33.3003 32.5506 32.6503 30.1006C32.0562 27.6935 31.5889 25.2568 31.2503 22.8006C30.6201 19.6591 31.0786 16.3967 32.5503 13.5506C34.2973 11.9075 36.86 11.4738 39.0503 12.4506C41.2533 14.0773 42.8958 16.3489 43.7503 18.9506C45.0607 22.1526 45.9351 25.5159 46.3503 28.9506C47.1503 33.9506 48.7003 41.2506 48.7503 42.7506C48.7503 40.9006 48.4003 37.0006 48.7503 35.2506C49.0971 33.4262 50.3651 31.9122 52.1003 31.2506C53.5894 30.7937 55.1646 30.691 56.7003 30.9506C58.2505 31.2747 59.6237 32.1663 60.5503 33.4506C61.7087 36.3676 62.3516 39.4636 62.4503 42.6006C62.5842 39.8535 63.0544 37.1333 63.8503 34.5006C64.6859 33.3234 65.906 32.4746 67.3003 32.1006C68.9533 31.7984 70.6474 31.7984 72.3003 32.1006C73.6558 32.5538 74.8415 33.4082 75.7003 34.5506C76.7592 37.2023 77.4002 40.0023 77.6003 42.8506C77.6003 43.5506 77.9503 40.9006 79.0503 39.1506C79.622 37.4536 81.0555 36.1905 82.811 35.837C84.5664 35.4835 86.3771 36.0934 87.561 37.437C88.7448 38.7805 89.122 40.6536 88.5503 42.3506C88.5503 45.6006 88.5503 45.4506 88.5503 47.6506C88.5503 49.8506 88.5503 51.8006 88.5503 53.6506C88.3681 56.5765 87.967 59.4846 87.3503 62.3506C86.4802 64.8862 85.2691 67.2916 83.7503 69.5006C81.3226 72.2004 79.3166 75.2515 77.8003 78.5506C77.4241 80.1896 77.2561 81.8696 77.3003 83.5506C77.2953 85.1038 77.4971 86.6507 77.9003 88.1506C75.856 88.3667 73.7946 88.3667 71.7503 88.1506C69.8003 87.8506 67.4003 83.9506 66.7503 82.7506C66.4287 82.1063 65.7705 81.6991 65.0503 81.6991C64.3302 81.6991 63.6719 82.1063 63.3503 82.7506C62.2503 84.6506 59.8003 88.1006 58.1003 88.3006C54.7503 88.7006 47.8503 88.3006 42.4003 88.3006C42.4003 88.3006 43.3003 83.3006 41.2503 81.5006C39.2003 79.7006 37.1003 77.6006 35.5503 76.2006L31.3503 71.4006Z" fill="white"/>
<path fill-rule="evenodd" clip-rule="evenodd" d="M31.3503 71.4006C29.9503 69.6006 28.2003 65.9506 25.1503 61.4006C23.4003 58.9006 19.1003 54.1506 17.8003 51.7006C16.8632 50.2118 16.5913 48.3989 17.0503 46.7006C17.8351 43.4717 20.8981 41.3297 24.2003 41.7006C26.7543 42.2137 29.1015 43.4655 30.9503 45.3006C32.2412 46.5165 33.4287 47.8377 34.5003 49.2506C35.3003 50.2506 35.5003 50.6506 36.4003 51.8006C37.3003 52.9506 37.9003 54.1006 37.4503 52.4006C37.1003 49.9006 36.5003 45.7006 35.6503 41.9506C35.0003 39.1006 34.8503 38.6506 34.2503 36.5006C33.6503 34.3506 33.3003 32.5506 32.6503 30.1006C32.0562 27.6935 31.5889 25.2568 31.2503 22.8006C30.6201 19.6591 31.0786 16.3967 32.5503 13.5506C34.2973 11.9075 36.86 11.4738 39.0503 12.4506C41.2533 14.0773 42.8958 16.3489 43.7503 18.9506C45.0607 22.1526 45.9351 25.5159 46.3503 28.9506C47.1503 33.9506 48.7003 41.2506 48.7503 42.7506C48.7503 40.9006 48.4003 37.0006 48.7503 35.2506C49.0971 33.4262 50.3651 31.9122 52.1003 31.2506C53.5894 30.7937 55.1646 30.691 56.7003 30.9506C58.2505 31.2747 59.6237 32.1663 60.5503 33.4506C61.7087 36.3676 62.3516 39.4636 62.4503 42.6006C62.5842 39.8535 63.0544 37.1333 63.8503 34.5006C64.6859 33.3234 65.906 32.4746 67.3003 32.1006C68.9533 31.7984 70.6474 31.7984 72.3003 32.1006C73.6558 32.5538 74.8415 33.4082 75.7003 34.5506C76.7592 37.2023 77.4002 40.0023 77.6003 42.8506C77.6003 43.5506 77.9503 40.9006 79.0503 39.1506C79.622 37.4536 81.0555 36.1905 82.811 35.837C84.5664 35.4835 86.3771 36.0934 87.561 37.437C88.7448 38.7805 89.122 40.6536 88.5503 42.3506C88.5503 45.6006 88.5503 45.4506 88.5503 47.6506C88.5503 49.8506 88.5503 51.8006 88.5503 53.6506C88.3681 56.5765 87.967 59.4846 87.3503 62.3506C86.4802 64.8862 85.2691 67.2916 83.7503 69.5006C81.3226 72.2004 79.3166 75.2515 77.8003 78.5506C77.4241 80.1896 77.2561 81.8696 77.3003 83.5506C77.2953 85.1038 77.4971 86.6507 77.9003 88.1506C75.856 88.3667 73.7946 88.3667 71.7503 88.1506C69.8003 87.8506 67.4003 83.9506 66.7503 82.7506C66.4287 82.1063 65.7705 81.6991 65.0503 81.6991C64.3302 81.6991 63.6719 82.1063 63.3503 82.7506C62.2503 84.6506 59.8003 88.1006 58.1003 88.3006C54.7503 88.7006 47.8503 88.3006 42.4003 88.3006C42.4003 88.3006 43.3003 83.3006 41.2503 81.5006C39.2003 79.7006 37.1003 77.6006 35.5503 76.2006L31.3503 71.4006Z" stroke="#222124" stroke-width="3.75" stroke-linecap="round" stroke-linejoin="round"/>
<path d="M73.7505 74.1299V56.871C73.7505 55.838 72.911 55.0005 71.8755 55.0005C70.84 55.0005 70.0005 55.838 70.0005 56.871V74.1299C70.0005 75.163 70.84 76.0005 71.8755 76.0005C72.911 76.0005 73.7505 75.163 73.7505 74.1299Z" fill="#222124"/>
<path d="M63.8505 74.1236L63.7505 56.8558C63.7445 55.8252 62.9002 54.9946 61.8647 55.0005C60.8292 55.0065 59.9946 55.8467 60.0005 56.8774L60.1005 74.1451C60.1065 75.1757 60.9508 76.0064 61.9863 76.0005C63.0218 75.9945 63.8564 75.1542 63.8505 74.1236Z" fill="#222124"/>
<path d="M50 56.8954L50.1 74.1275C50.1061 75.168 50.9504 76.0065 51.9859 76.0005C53.0214 75.9944 53.856 75.146 53.85 74.1055L53.75 56.8735C53.7439 55.833 52.8996 54.9945 51.8641 55.0005C50.8286 55.0066 49.994 55.855 50 56.8954Z" fill="#222124"/>
</g>
<defs>
<filter id="filter0_d_47_10978" x="10.957" y="10.0596" width="83.7305" height="89.2939" filterUnits="userSpaceOnUse" color-interpolation-filters="sRGB">
<feFlood flood-opacity="0" result="BackgroundImageFix"/>
<feColorMatrix in="SourceAlpha" type="matrix" values="0 0 0 0 0 0 0 0 0 0 0 0 0 0 0 0 0 0 127 0" result="hardAlpha"/>
<feOffset dy="5"/>
<feGaussianBlur stdDeviation="2"/>
<feColorMatrix type="matrix" values="0 0 0 0 0 0 0 0 0 0 0 0 0 0 0 0 0 0 0.5 0"/>
<feBlend mode="normal" in2="BackgroundImageFix" result="effect1_dropShadow_47_10978"/>
<feBlend mode="normal" in="SourceGraphic" in2="effect1_dropShadow_47_10978" result="shape"/>
</filter>
</defs>
</svg>
