<svg width="100" height="100" viewBox="0 0 100 100" fill="none" xmlns="http://www.w3.org/2000/svg">
<path d="M81.1106 9.99951C86.0198 9.99951 89.9995 13.9247 89.9995 18.7666L89.9995 33.7326C89.9995 38.5745 86.0198 42.4997 81.1106 42.4997H67.7773C62.8681 42.4997 58.8884 38.5745 58.8884 33.7326L58.8884 18.7666C58.8884 13.9247 62.8681 9.99951 67.7773 9.99951L81.1106 9.99951Z" stroke="#D9D9D9" stroke-width="8.33333" stroke-linecap="round" stroke-linejoin="round"/>
<path d="M18.8884 9.99951C13.9792 9.99951 9.99951 13.9247 9.99951 18.7666L9.99955 33.7326C9.99955 38.5745 13.9792 42.4997 18.8884 42.4997H32.2218C37.131 42.4997 41.1106 38.5745 41.1106 33.7326L41.1106 18.7666C41.1106 13.9247 37.1309 9.99951 32.2217 9.99951L18.8884 9.99951Z" stroke="#D9D9D9" stroke-width="8.33333" stroke-linecap="round" stroke-linejoin="round"/>
<path d="M81.1106 57.4997C86.0198 57.4997 89.9995 61.4249 89.9995 66.2668V81.2326C89.9995 86.0745 86.0198 89.9997 81.1106 89.9997H67.7773C62.8681 89.9997 58.8884 86.0745 58.8884 81.2326L58.8884 66.2668C58.8884 61.4249 62.8681 57.4997 67.7773 57.4997H81.1106Z" stroke="#D9D9D9" stroke-width="8.33333" stroke-linecap="round" stroke-linejoin="round"/>
<path d="M18.8884 57.4997C13.9792 57.4997 9.99954 61.4249 9.99955 66.2668L9.99956 81.2326C9.99956 86.0745 13.9792 89.9997 18.8884 89.9997H32.2218C37.131 89.9997 41.1107 86.0745 41.1107 81.2326L41.1106 66.2668C41.1106 61.4249 37.131 57.4997 32.2218 57.4997H18.8884Z" stroke="#D9D9D9" stroke-width="8.33333" stroke-linecap="round" stroke-linejoin="round"/>
</svg>
