<svg width="100" height="100" viewBox="0 0 100 100" fill="none" xmlns="http://www.w3.org/2000/svg">
<path d="M63.6804 63.9514C65.8635 64.6791 68.2232 63.4992 68.9509 61.3161C69.6786 59.133 68.4987 56.7734 66.3157 56.0457L63.6804 63.9514ZM49.998 54.9985H45.8314C45.8314 56.792 46.979 58.3842 48.6804 58.9514L49.998 54.9985ZM54.1647 34.0913C54.1647 31.7901 52.2992 29.9246 49.998 29.9246C47.6969 29.9246 45.8314 31.7901 45.8314 34.0913H54.1647ZM64.998 59.9985L66.3157 56.0457L51.3157 51.0457L49.998 54.9985L48.6804 58.9514L63.6804 63.9514L64.998 59.9985ZM49.998 54.9985H54.1647V34.0913H49.998H45.8314V54.9985H49.998ZM89.998 49.9985H85.8314C85.8314 69.7887 69.7882 85.8319 49.998 85.8319V89.9985V94.1652C74.3906 94.1652 94.1647 74.3911 94.1647 49.9985H89.998ZM49.998 89.9985V85.8319C30.2078 85.8319 14.1647 69.7887 14.1647 49.9985H9.99805H5.83138C5.83138 74.3911 25.6055 94.1652 49.998 94.1652V89.9985ZM9.99805 49.9985H14.1647C14.1647 30.2083 30.2078 14.1652 49.998 14.1652V9.99854V5.83187C25.6055 5.83187 5.83138 25.606 5.83138 49.9985H9.99805ZM49.998 9.99854V14.1652C69.7882 14.1652 85.8314 30.2083 85.8314 49.9985H89.998H94.1647C94.1647 25.606 74.3906 5.83187 49.998 5.83187V9.99854Z" fill="#D9D9D9"/>
</svg>
