<svg width="100" height="100" viewBox="0 0 100 100" fill="none" xmlns="http://www.w3.org/2000/svg">
<g clip-path="url(#clip0_47_10855)">
<path fill-rule="evenodd" clip-rule="evenodd" d="M7.32308 76.1639C3.12911 71.6055 4.17793 64.3455 9.49054 61.1604L79.0633 19.4498C83.694 16.6736 89.6983 18.1769 92.4745 22.8075L93.4421 24.4215C96.2183 29.0521 94.715 35.0565 90.0844 37.8327L67.8542 51.1602L70.82 56.1071C73.5961 60.7377 72.0928 66.7421 67.4622 69.5183L46.4243 82.131C45.5838 82.6349 44.6724 83.0096 43.7205 83.2424L35.2833 85.3063C29.6876 86.6751 23.7691 85.8668 18.6334 83.121L10.4329 78.7365C9.46499 78.219 8.59114 77.5422 7.84801 76.7345L7.32308 76.1639ZM54.4854 47.8732C53.9276 46.9427 52.7212 46.6407 51.7907 47.1985L15.1822 69.1463C14.839 69.352 14.7713 69.821 15.0422 70.1155L23.2427 74.4999C26.3321 76.1517 29.7886 76.5863 32.9605 75.8104L41.1091 73.8171C41.3003 73.7703 41.4835 73.695 41.6524 73.5938L60.7508 62.1438C61.6812 61.586 61.9833 60.3795 61.4255 59.4491L54.4854 47.8732ZM62.6669 40.678C62.2212 40.9452 62.0765 41.5231 62.3437 41.9688L-nan -nanL62.3437 41.9688C62.6109 42.4144 63.1888 42.5591 63.6345 42.2919L84.2507 29.932C84.6963 29.6648 84.841 29.0869 84.5738 28.6412L-nan -nanL84.5738 28.6412C84.3066 28.1956 83.7287 28.0509 83.283 28.3181L62.6669 40.678Z" fill="#D9D9D9"/>
</g>
<defs>
<clipPath id="clip0_47_10855">
<rect width="100" height="100" fill="white"/>
</clipPath>
</defs>
</svg>
