<svg width="100" height="100" viewBox="0 0 100 100" fill="none" xmlns="http://www.w3.org/2000/svg">
<path d="M34.9995 65L64.9995 35M37.3074 37.2889L37.2485 37.2294M62.7679 63.0112L62.709 62.9517M33.0114 18.2805L28.7701 18.5388C23.2641 18.8742 18.8737 23.2646 18.5383 28.7706L18.28 33.0119C18.1319 35.4449 17.1736 37.7582 15.5581 39.5833L12.7417 42.765C9.08546 46.8955 9.08546 53.1045 12.7417 57.235L15.5581 60.4167C17.1736 62.2418 18.1319 64.5551 18.28 66.9881L18.5383 71.2294C18.8737 76.7354 23.2641 81.1258 28.7701 81.4612L33.0114 81.7195C35.4444 81.8676 37.7577 82.8259 39.5828 84.4414L42.7645 87.2578C46.895 90.914 53.104 90.914 57.2345 87.2578L60.4162 84.4414C62.2413 82.8259 64.5547 81.8676 66.9876 81.7195L71.2289 81.4612C76.7349 81.1258 81.1253 76.7353 81.4607 71.2294L81.719 66.9881C81.8672 64.5551 82.8254 62.2418 84.441 60.4167L87.2573 57.235C90.9136 53.1045 90.9136 46.8955 87.2573 42.765L84.441 39.5833C82.8254 37.7582 81.8672 35.4449 81.719 33.0119L81.4607 28.7706C81.1253 23.2646 76.7349 18.8742 71.2289 18.5388L66.9876 18.2805C64.5547 18.1324 62.2413 17.1741 60.4162 15.5585L57.2345 12.7422C53.104 9.08595 46.895 9.08595 42.7645 12.7422L39.5828 15.5585C37.7577 17.1741 35.4444 18.1324 33.0114 18.2805Z" stroke="#D9D9D9" stroke-width="8.33333" stroke-linecap="round"/>
</svg>
