<svg width="100" height="100" viewBox="0 0 100 100" fill="none" xmlns="http://www.w3.org/2000/svg">
<path d="M66.7721 85.7115L66.7733 72.3208C66.7739 64.9242 60.778 58.9277 53.3814 58.9277H23.3929C15.9974 58.9277 10.0018 64.9226 10.001 72.3181L9.99951 85.7115M89.9983 85.7123L89.9995 72.3216C90.0002 64.925 84.0042 58.9285 76.6076 58.9285M64.1926 16.9189C67.4813 19.3591 69.6126 23.271 69.6126 27.6807C69.6126 32.0904 67.4813 36.0023 64.1926 38.4425M52.057 27.68C52.057 35.0761 46.0612 41.0719 38.6651 41.0719C31.269 41.0719 25.2732 35.0761 25.2732 27.68C25.2732 20.2838 31.269 14.2881 38.6651 14.2881C46.0612 14.2881 52.057 20.2838 52.057 27.68Z" stroke="#D9D9D9" stroke-width="8.33333" stroke-linecap="round" stroke-linejoin="round"/>
</svg>
