<svg width="100" height="100" viewBox="0 0 100 100" fill="none" xmlns="http://www.w3.org/2000/svg">
<path d="M36.4836 17.7313L41.7798 10.1203C42.5587 9.00086 43.8361 8.3335 45.1999 8.3335H52.721C54.0797 8.3335 55.353 8.99593 56.1329 10.1085L61.3737 17.5848M36.4836 17.7313C35.0384 19.7931 32.6361 20.8034 30.0863 20.6233M36.4836 17.7313C35.0313 19.7882 32.6361 20.8118 30.0863 20.6233M30.0863 20.6233L20.7151 20.035C19.3782 19.9511 18.0825 20.515 17.2329 21.5505L12.4808 27.3422C11.5799 28.4401 11.3003 29.9212 11.7389 31.2719L14.4716 39.6878M14.4716 39.6878C14.8421 40.8892 14.8895 42.1763 14.6244 43.3919M14.4716 39.6878C14.8474 40.8871 14.8931 42.1716 14.6226 43.4043M14.6244 43.3919C14.3557 44.593 13.7797 45.7272 12.9245 46.6457M14.6244 43.3919L14.6226 43.4043M12.9245 46.6457L6.73243 53.3054C5.78077 54.3289 5.40565 55.7614 5.7335 57.12L7.41083 64.0708C7.7376 65.425 8.71946 66.5262 10.0274 67.0056L18.5351 70.1237C19.7222 70.5832 20.7477 71.3299 21.5239 72.2704M12.9245 46.6457C13.785 45.7347 14.3557 44.6042 14.6226 43.4043M21.5239 72.2704C22.2948 73.2138 22.8198 74.3522 23.0235 75.585M21.5239 72.2704C22.3018 73.2138 22.8286 74.3492 23.0235 75.585M21.5239 72.2704L21.5116 72.2569C21.4607 72.1953 21.4062 72.1309 21.3535 72.071M23.0235 75.585L24.4721 84.4832C24.6941 85.8465 25.5772 87.0112 26.83 87.5929L33.6131 90.7422C34.8259 91.3052 36.2352 91.2521 37.4021 90.5992L45.3762 86.138M45.3762 86.138C46.4807 85.5175 47.7135 85.2064 48.9462 85.2049M45.3762 86.138C45.8134 85.8892 46.2718 85.6906 46.7424 85.5416C47.4571 85.3151 48.2016 85.2034 48.9462 85.2049M48.9462 85.2049C49.5872 85.2062 50.2281 85.291 50.8533 85.4585C51.4345 85.6141 52 85.8411 52.5356 86.138M48.9462 85.2049C50.1842 85.2032 51.424 85.5143 52.5356 86.138M52.5356 86.138L60.8834 90.657C62.0554 91.2915 63.4601 91.327 64.6627 90.7527L71.4132 87.5286C72.6616 86.9323 73.5327 85.7553 73.738 84.3872L75.0357 75.7417M75.0357 75.7417C75.2306 74.5021 75.7487 73.355 76.5178 72.4035M75.0357 75.7417C75.2236 74.4993 75.7451 73.3539 76.5178 72.4035M76.5178 72.4035C77.2817 71.4617 78.2949 70.7113 79.475 70.2474M76.5178 72.4035C77.2799 71.458 78.2897 70.7055 79.475 70.2474M79.475 70.2474L88.0707 66.8786C89.354 66.3757 90.3055 65.2707 90.6124 63.927L92.2194 56.8916C92.5255 55.5515 92.151 54.1467 91.2183 53.1368L84.9889 46.3917M84.9889 46.3917C84.1179 45.47 83.5104 44.3691 83.2153 43.1991M84.9889 46.3917C84.5798 45.9612 84.2286 45.4906 83.9423 44.9917C83.6157 44.4251 83.3716 43.8221 83.2153 43.1991M83.2153 43.1991C82.9256 42.0374 82.9432 40.8064 83.3102 39.6148L86.0044 30.9788C86.4227 29.6379 86.1374 28.1766 85.2453 27.0917L80.6102 21.4541C79.7507 20.4087 78.4371 19.8459 77.0873 19.9448L67.8236 20.6233M67.8236 20.6233C66.5558 20.7128 65.309 20.4713 64.1992 19.9518M67.8236 20.6233C66.554 20.718 65.309 20.4745 64.1992 19.9518M64.1992 19.9518C63.0823 19.4256 62.1025 18.6164 61.3737 17.5848M64.1992 19.9518C63.0806 19.4275 62.099 18.6205 61.3737 17.5848M14.6226 43.4043L14.6261 43.3861M63.0665 50.0444C63.0665 57.815 56.6254 64.1142 48.681 64.1142C40.7367 64.1142 34.2956 57.815 34.2956 50.0444C34.2956 42.2738 40.7367 35.9746 48.681 35.9746C56.6254 35.9746 63.0665 42.2738 63.0665 50.0444Z" stroke="#D9D9D9" stroke-width="8.33333"/>
</svg>
