<svg width="100" height="100" viewBox="0 0 100 100" fill="none" xmlns="http://www.w3.org/2000/svg">
<path d="M12.9939 70.279L9.59453 67.8696H9.59453L12.9939 70.279ZM18.4454 53.7128L14.279 53.6652L14.2787 53.689V53.7128H18.4454ZM18.5598 43.6968L22.7262 43.7444L22.7264 43.7206V43.6968H18.5598ZM87.0333 70.3594L90.4793 68.0172L90.4793 68.0172L87.0333 70.3594ZM81.7869 53.7128L77.6206 53.6628L77.6203 53.6878V53.7128H81.7869ZM81.9014 44.1931L86.0677 44.2432L86.068 44.2182V44.1931H81.9014ZM37.499 85.8347C35.1978 85.8347 33.3324 87.7002 33.3324 90.0014C33.3324 92.3026 35.1978 94.168 37.499 94.168V85.8347ZM62.499 94.168C64.8002 94.168 66.6657 92.3026 66.6657 90.0014C66.6657 87.7002 64.8002 85.8347 62.499 85.8347V94.168ZM12.9939 70.279L16.3933 72.6884C19.5187 68.2789 22.612 61.7128 22.612 53.7128H18.4454H14.2787C14.2787 59.5375 12.0171 64.4517 9.59453 67.8696L12.9939 70.279ZM18.4454 53.7128L22.6118 53.7604L22.7262 43.7444L18.5598 43.6968L14.3934 43.6492L14.279 53.6652L18.4454 53.7128ZM87.0333 70.3594L90.4793 68.0172C88.1573 64.601 85.9536 59.6322 85.9536 53.7128H81.7869H77.6203C77.6203 61.7131 80.5868 68.2872 83.5873 72.7016L87.0333 70.3594ZM81.7869 53.7128L85.9533 53.7629L86.0677 44.2432L81.9014 44.1931L77.735 44.1431L77.6206 53.6628L81.7869 53.7128ZM81.9014 44.1931H86.068C86.068 23.2853 70.1866 5.83529 49.999 5.83529V10.002V14.1686C65.0498 14.1686 77.7347 27.3344 77.7347 44.1931H81.9014ZM85.124 75.0014V79.168C88.4457 79.168 90.3811 76.6978 91.114 74.8525C91.8634 72.9655 92.0189 70.2824 90.4793 68.0172L87.0333 70.3594L83.5872 72.7016C83.3798 72.3964 83.3396 72.1341 83.3335 72.0194C83.3276 71.9085 83.3451 71.837 83.3692 71.7764C83.3901 71.7236 83.4728 71.5376 83.725 71.3254C84.0082 71.0872 84.4986 70.8347 85.124 70.8347V75.0014ZM18.5598 43.6968H22.7264C22.7264 27.1122 35.204 14.1686 49.999 14.1686V10.002V5.83529C30.0672 5.83529 14.3931 23.0631 14.3931 43.6968H18.5598ZM14.8786 75.0014V70.8347C15.5178 70.8347 16.014 71.0972 16.2941 71.3373C16.5423 71.5501 16.6184 71.7319 16.635 71.7749C16.6548 71.8263 16.671 71.8902 16.6641 71.9974C16.6569 72.1081 16.614 72.377 16.3933 72.6884L12.9939 70.279L9.59453 67.8696C7.98402 70.1418 8.12664 72.8701 8.85864 74.7704C9.57237 76.6233 11.5028 79.168 14.8786 79.168V75.0014ZM85.124 75.0014V70.8347H14.8786V75.0014V79.168H85.124V75.0014ZM37.499 90.0014V94.168H62.499V90.0014V85.8347H37.499V90.0014Z" fill="#D9D9D9"/>
</svg>
