<svg width="100" height="100" viewBox="0 0 100 100" fill="none" xmlns="http://www.w3.org/2000/svg">
<path d="M84.998 81.2529L22.498 18.7529M42.498 43.5095C40.9421 45.2248 39.998 47.4781 39.998 49.9459C39.998 55.32 44.4752 59.6765 49.998 59.6765C52.5445 59.6765 54.8686 58.7504 56.6341 57.2254M85.1597 59.6765C88.6023 54.523 89.998 50.3201 89.998 50.3201C89.998 50.3201 80.8955 21.2529 49.998 21.2529C48.2634 21.2529 46.5975 21.3445 44.998 21.5175M72.498 72.2923C66.7588 75.9535 59.3703 78.5426 49.998 78.3893C19.4852 77.8903 9.99805 50.3201 9.99805 50.3201C9.99805 50.3201 14.4058 36.2449 27.498 27.6834" stroke="#D9D9D9" stroke-width="8.33333" stroke-linecap="round"/>
</svg>
