<svg width="100" height="100" viewBox="0 0 100 100" fill="none" xmlns="http://www.w3.org/2000/svg">
<path d="M37.5843 69.0909C37.5843 75.1158 32.6439 80 26.5498 80C20.4556 80 15.5153 75.1158 15.5153 69.0909M37.5843 69.0909C37.5843 63.066 32.6439 58.1818 26.5498 58.1818C20.4556 58.1818 15.5153 63.066 15.5153 69.0909M37.5843 69.0909H62.4118M15.5153 69.0909H9.99805V24.1667C9.99805 21.8655 11.8635 20 14.1647 20H62.4118V69.0909M87.2394 69.0909C87.2394 75.1158 82.2991 80 76.2049 80C70.1108 80 65.1705 75.1158 65.1705 69.0909M87.2394 69.0909C87.2394 63.066 82.2991 58.1818 76.2049 58.1818C70.1108 58.1818 65.1705 63.066 65.1705 69.0909M87.2394 69.0909H89.998V47.2727L76.2049 33.6364H62.4118V69.0909M65.1705 69.0909H62.4118" stroke="#D9D9D9" stroke-width="8.33333" stroke-linecap="round" stroke-linejoin="round"/>
</svg>
