<svg width="100" height="100" viewBox="0 0 100 100" fill="none" xmlns="http://www.w3.org/2000/svg">
<g filter="url(#filter0_d_47_10866)">
<path fill-rule="evenodd" clip-rule="evenodd" d="M25.9187 59.3291C23.2586 56.4201 23.9401 51.8021 27.327 49.7856L71.6815 23.3772C74.6336 21.6195 78.4517 22.5878 80.2094 25.5399L80.822 26.5689C82.5797 29.521 81.6114 33.3391 78.6593 35.0968L64.487 43.5349L66.3647 46.6886C68.1224 49.6407 67.1541 53.4588 64.2019 55.2165L50.7898 63.2021C50.2539 63.5211 49.6732 63.7577 49.067 63.9041L43.6939 65.2011C40.1303 66.0613 36.3655 65.5355 33.1027 63.7782L27.8927 60.9722C27.2777 60.641 26.723 60.2086 26.2516 59.6932L25.9187 59.3291ZM55.9859 41.4172C55.6328 40.824 54.8656 40.6295 54.2724 40.9826L30.9336 54.8785C30.7148 55.0088 30.6707 55.3071 30.8426 55.495L36.0526 58.301C38.0154 59.3581 40.2141 59.6414 42.2341 59.1538L47.4234 57.9011C47.5452 57.8717 47.6619 57.8241 47.7696 57.76L59.9453 50.5107C60.5385 50.1575 60.7331 49.3903 60.3799 48.7971L55.9859 41.4172ZM61.2063 36.8543C60.9221 37.0234 60.8289 37.3909 60.9981 37.6751L-nan -nanL60.9981 37.6751C61.1673 37.9592 61.5348 38.0524 61.8189 37.8832L74.9622 30.0578C75.2463 29.8886 75.3395 29.5211 75.1704 29.237L-nan -nanL75.1704 29.237C75.0012 28.9528 74.6337 28.8596 74.3496 29.0288L61.2063 36.8543Z" fill="#D9D9D9"/>
<path fill-rule="evenodd" clip-rule="evenodd" d="M75 69.1982H25C24.3096 69.1982 23.75 69.7578 23.75 70.4482C23.75 71.1385 24.3096 71.6982 25 71.6982H75C75.6904 71.6982 76.25 71.1385 76.25 70.4482C76.25 69.7578 75.6904 69.1982 75 69.1982ZM25 64.1982C21.5482 64.1982 18.75 66.9964 18.75 70.4482C18.75 73.9 21.5482 76.6982 25 76.6982H75C78.4518 76.6982 81.25 73.9 81.25 70.4482C81.25 66.9964 78.4518 64.1982 75 64.1982H25Z" fill="#D9D9D9"/>
</g>
<defs>
<filter id="filter0_d_47_10866" x="-4" y="0" width="108" height="108" filterUnits="userSpaceOnUse" color-interpolation-filters="sRGB">
<feFlood flood-opacity="0" result="BackgroundImageFix"/>
<feColorMatrix in="SourceAlpha" type="matrix" values="0 0 0 0 0 0 0 0 0 0 0 0 0 0 0 0 0 0 127 0" result="hardAlpha"/>
<feOffset dy="4"/>
<feGaussianBlur stdDeviation="2"/>
<feComposite in2="hardAlpha" operator="out"/>
<feColorMatrix type="matrix" values="0 0 0 0 0 0 0 0 0 0 0 0 0 0 0 0 0 0 0.05 0"/>
<feBlend mode="normal" in2="BackgroundImageFix" result="effect1_dropShadow_47_10866"/>
<feBlend mode="normal" in="SourceGraphic" in2="effect1_dropShadow_47_10866" result="shape"/>
</filter>
</defs>
</svg>
