<svg width="100" height="100" viewBox="0 0 100 100" fill="none" xmlns="http://www.w3.org/2000/svg">
<path d="M27.714 90H72.2854C74.8102 90 76.8569 87.9533 76.8569 85.4286V73.2166C76.8569 72.2407 76.5446 71.2905 75.9657 70.5048L62.7828 52.6137C61.6295 51.0485 61.5923 48.9251 62.6902 47.3205L74.9154 29.4529C75.4356 28.6925 75.714 27.7928 75.714 26.8715V14.5714C75.714 12.0467 73.6673 10 71.1426 10H27.714C25.1893 10 23.1426 12.0467 23.1426 14.5714V26.7834C23.1426 27.7593 23.4549 28.7095 24.0338 29.4952L37.1444 47.2882C38.3327 48.9008 38.3327 51.0992 37.1444 52.7118L24.0338 70.5048C23.4549 71.2905 23.1426 72.2407 23.1426 73.2166V85.4286C23.1426 87.9533 25.1893 90 27.714 90Z" stroke="#D9D9D9" stroke-width="8.33333" stroke-linecap="round" stroke-linejoin="round"/>
</svg>
