<svg width="100" height="100" viewBox="0 0 100 100" fill="none" xmlns="http://www.w3.org/2000/svg">
<path d="M24.9995 25.0005V42.5005M74.9995 25.0005V42.5005M72.4995 60.0005H82.4995C86.6416 60.0005 89.9995 56.6426 89.9995 52.5005V17.5005C89.9995 13.3584 86.6416 10.0005 82.4995 10.0005H17.4995C13.3574 10.0005 9.99951 13.3584 9.99951 17.5005V52.5005C9.99951 56.6426 13.3574 60.0005 17.4995 60.0005H27.4995M35.8534 75.8575L49.9955 89.9996M49.9955 89.9996L63.1849 76.8102M49.9955 89.9996L49.9961 61.0732M59.9995 35.0005C59.9995 40.5233 55.5224 45.0005 49.9995 45.0005C44.4767 45.0005 39.9995 40.5233 39.9995 35.0005C39.9995 29.4776 44.4767 25.0005 49.9995 25.0005C55.5224 25.0005 59.9995 29.4776 59.9995 35.0005Z" stroke="#D9D9D9" stroke-width="8.33333" stroke-linecap="round" stroke-linejoin="round"/>
</svg>
