<svg width="100" height="100" viewBox="0 0 100 100" fill="none" xmlns="http://www.w3.org/2000/svg">
<path d="M8 90.167L8.00195 75.165C8.00314 64.5804 16.5843 56 27.1689 56H57.166C59.4672 56 61.333 57.8658 61.333 60.167C61.333 62.3962 59.5824 64.2165 57.3809 64.3281L57.166 64.334H27.1689C21.1863 64.334 16.3356 69.1834 16.335 75.166L16.334 90.167C16.3337 92.468 14.468 94.334 12.167 94.334C9.86597 94.3337 8 92.468 8 90.167ZM58 25.167C58 19.1839 53.1501 14.334 47.167 14.334C41.1839 14.334 36.334 19.1839 36.334 25.167C36.334 31.1501 41.1839 36 47.167 36C53.1501 36 58 31.1501 58 25.167ZM66.334 25.167C66.334 35.7524 57.7524 44.334 47.167 44.334C36.5815 44.334 28 35.7524 28 25.167C28 14.5815 36.5815 6 47.167 6C57.7524 6.00001 66.334 14.5815 66.334 25.167Z" fill="#D9D9D9"/>
<path fill-rule="evenodd" clip-rule="evenodd" d="M50.3171 87.7918C48.3039 85.6038 48.8074 82.1189 51.3574 80.5901L84.7524 60.569C86.9751 59.2364 89.8572 59.958 91.1897 62.1807L91.6542 62.9554C92.9868 65.1781 92.2652 68.0602 90.0425 69.3928L79.372 75.79L80.7956 78.1645C82.1281 80.3872 81.4065 83.2693 79.1838 84.6019L69.0856 90.656C68.6822 90.8979 68.2447 91.0777 67.7878 91.1895L63.738 92.1801C61.052 92.8372 58.2111 92.4492 55.746 91.1312L51.8098 89.0266C51.3452 88.7782 50.9257 88.4534 50.569 88.0657L50.3171 87.7918ZM72.955 74.2122C72.6872 73.7656 72.1081 73.6206 71.6615 73.8884L54.0894 84.4233C53.9247 84.5221 53.8922 84.7472 54.0222 84.8885L57.9585 86.9931C59.4414 87.7859 61.1005 87.9945 62.623 87.6221L66.5343 86.6653C66.6261 86.6429 66.714 86.6067 66.7951 86.5581L75.9623 81.0621C76.409 80.7944 76.5539 80.2153 76.2862 79.7687L72.955 74.2122ZM76.8821 70.7585C76.6682 70.8868 76.5987 71.1642 76.727 71.3781L-nan -nanL76.727 71.3781C76.8552 71.592 77.1326 71.6615 77.3465 71.5332L87.2423 65.6005C87.4562 65.4722 87.5257 65.1948 87.3974 64.9809L-nan -nanL87.3974 64.9809C87.2692 64.767 86.9918 64.6975 86.7778 64.8258L76.8821 70.7585Z" fill="#D9D9D9"/>
</svg>
