<svg width="18" height="18" viewBox="0 0 18 18" fill="none" xmlns="http://www.w3.org/2000/svg">
<g clip-path="url(#clip0_324_2473)">
<path fill-rule="evenodd" clip-rule="evenodd" d="M1.31817 13.7095C0.56326 12.889 0.752047 11.5822 1.70832 11.0089L14.2314 3.50097C15.0649 3.00126 16.1457 3.27186 16.6454 4.10537L16.8196 4.39589C17.3193 5.2294 17.0487 6.31019 16.2152 6.8099L12.2138 9.20886L12.7476 10.0993C13.2473 10.9328 12.9767 12.0136 12.1432 12.5133L8.3564 14.7836C8.20511 14.8743 8.04104 14.9417 7.8697 14.9836L6.35102 15.3551C5.34378 15.6015 4.27845 15.456 3.35403 14.9618L1.87794 14.1726C1.70372 14.0794 1.54643 13.9576 1.41266 13.8122L1.31817 13.7095ZM9.8074 8.61719C9.70699 8.44971 9.48983 8.39534 9.32235 8.49575L2.73282 12.4463C2.67104 12.4834 2.65885 12.5678 2.70761 12.6208L4.18371 13.41C4.7398 13.7073 5.36197 13.7856 5.9329 13.6459L7.39965 13.2871C7.43408 13.2787 7.46705 13.2651 7.49744 13.2469L10.9352 11.1859C11.1026 11.0855 11.157 10.8683 11.0566 10.7009L9.8074 8.61719ZM11.2801 7.32205C11.1998 7.37014 11.1738 7.47417 11.2219 7.55439L-nan -nanL11.2219 7.55439C11.27 7.63462 11.374 7.66066 11.4542 7.61256L15.1651 5.38778C15.2454 5.33969 15.2714 5.23566 15.2233 5.15544L-nan -nanL15.2233 5.15544C15.1752 5.07521 15.0712 5.04917 14.991 5.09727L11.2801 7.32205Z" fill="#D9D9D9"/>
<path d="M1.83846 13.2307C1.38697 12.74 1.50031 11.9584 2.07228 11.6155L14.5953 4.10762C15.0938 3.80883 15.7399 3.97094 16.0388 4.46945L16.2133 4.75884C16.5121 5.25729 16.3502 5.9042 15.8519 6.20319L11.8496 8.60216L11.2434 8.96607L11.6073 9.57229L12.1414 10.4625C12.4402 10.961 12.2784 11.6079 11.7801 11.9068L7.99319 14.177C7.90287 14.2312 7.80459 14.2718 7.70231 14.2969L6.18305 14.6681C5.35124 14.8716 4.46371 14.7538 3.68726 14.3387L2.21096 13.5488C2.10696 13.4931 2.01283 13.4206 1.93295 13.3338L1.83846 13.2307ZM10.6155 7.91804C10.8644 8.33315 11.4029 8.46755 11.8181 8.21865L15.5288 5.99429C15.9439 5.74538 16.0783 5.20691 15.8294 4.79173C15.5805 4.37684 15.0427 4.24202 14.6277 4.49063L10.9161 6.71548L10.8424 6.76553C10.51 7.0135 10.3972 7.46314 10.5734 7.83859L10.6155 7.91804ZM2.29023 11.8941C1.91417 12.1828 1.85707 12.7407 2.18723 13.0995L2.26846 13.1877L2.37428 13.2445L3.85009 14.0336C4.55418 14.41 5.35443 14.5151 6.10046 14.3327L7.56802 13.9737C7.67112 13.9485 7.77004 13.9083 7.86108 13.8537L11.2983 11.7923C11.8007 11.491 11.9645 10.8392 11.6632 10.3367L10.414 8.25379C10.1128 7.75136 9.46094 7.58762 8.9585 7.88883L2.36929 11.8398L2.29023 11.8941Z" stroke="#E67E22" stroke-width="1.41428" stroke-linecap="round"/>
</g>
<defs>
<clipPath id="clip0_324_2473">
<rect width="18" height="18" fill="white"/>
</clipPath>
</defs>
</svg>
