<svg width="113" height="31" viewBox="0 0 113 31" fill="none" xmlns="http://www.w3.org/2000/svg">
<path d="M10.8333 7.94553L16.234 1.97269C16.7073 1.44931 17.5152 1.40866 18.0386 1.88191L18.4034 2.21181C18.9268 2.68505 18.9675 3.49298 18.4942 4.01637L16.2223 6.52895L13.9504 9.04154C13.4772 9.56492 12.6692 9.60556 12.1458 9.13231L11.9634 8.96737L10.8333 7.94553ZM10.8333 7.94553L2.01343 17.6998C1.47048 18.3003 1.61575 19.2479 2.31364 19.6581L2.48834 19.7608C2.612 19.8335 2.74702 19.8849 2.88773 19.9127L5.2721 20.3846C6.46785 20.6213 7.68728 20.4198 8.70179 19.8178L10.6543 18.6594C10.7645 18.594 10.8642 18.5125 10.9501 18.4175L15.2502 13.6618C15.7234 13.1384 15.6828 12.3305 15.1594 11.8572L10.8333 7.94553Z" stroke="#E67E22" stroke-width="2.55526" stroke-linecap="round"/>
<path d="M60.6413 15.015C60.6413 15.655 60.4113 16.205 59.9513 16.665C59.5113 17.105 58.9713 17.325 58.3313 17.325C57.6913 17.325 57.1413 17.105 56.6813 16.665C56.2413 16.205 56.0213 15.655 56.0213 15.015C56.0213 14.375 56.2413 13.835 56.6813 13.395C57.1413 12.935 57.6913 12.705 58.3313 12.705C58.9713 12.705 59.5113 12.935 59.9513 13.395C60.4113 13.835 60.6413 14.375 60.6413 15.015ZM55.0313 28.365C55.0313 29.325 54.4313 29.805 53.2313 29.805C52.0513 29.805 51.4613 29.325 51.4613 28.365V5.74499C51.4613 4.78499 52.0513 4.30499 53.2313 4.30499C54.4313 4.30499 55.0313 4.78499 55.0313 5.74499V28.365ZM35.2613 26.835C34.1213 27.255 33.3413 27.005 32.9213 26.085C32.5213 25.165 32.7213 24.535 33.5213 24.195C35.7213 23.255 38.0313 21.695 40.4513 19.515C42.8913 17.315 44.1113 14.795 44.1113 11.955V8.29499C44.1113 8.21499 44.1013 8.14499 44.0813 8.08499C44.0613 8.02499 43.9813 7.99499 43.8413 7.99499H34.5713C33.8313 7.99499 33.4513 7.49499 33.4313 6.49499C33.4313 5.47499 33.8113 4.96499 34.5713 4.96499H45.7913C46.5113 4.96499 47.0013 5.15499 47.2613 5.53499C47.5413 5.89499 47.6813 6.30499 47.6813 6.76499V12.885C47.6813 14.985 46.6713 17.455 44.6513 20.295C42.6313 23.115 39.5013 25.295 35.2613 26.835Z" fill="#E67E22"/>
<path d="M66.9896 14.205C66.2696 14.205 65.7696 14.025 65.4896 13.665C65.2296 13.285 65.0996 12.865 65.0996 12.405V5.83499C65.0996 4.87499 65.6896 4.39499 66.8696 4.39499C68.0696 4.39499 68.6696 4.87499 68.6696 5.83499V10.875C68.6696 10.955 68.6796 11.025 68.6996 11.085C68.7196 11.145 68.7996 11.175 68.9396 11.175H82.6196C83.3996 11.175 83.7796 11.685 83.7596 12.705C83.7396 13.705 83.3496 14.205 82.5896 14.205H66.9896ZM68.8196 30.495C68.0996 30.495 67.5996 30.305 67.3196 29.925C67.0596 29.565 66.9296 29.155 66.9296 28.695V22.485C66.9296 21.525 67.5196 21.045 68.6996 21.045C69.8996 21.045 70.4996 21.525 70.4996 22.485V27.165C70.4996 27.245 70.5096 27.315 70.5296 27.375C70.5496 27.435 70.6296 27.465 70.7696 27.465H83.9396C84.7196 27.465 85.0996 27.975 85.0796 28.995C85.0596 29.995 84.6696 30.495 83.9096 30.495H68.8196ZM62.7896 19.935C62.0496 19.935 61.6696 19.435 61.6496 18.435C61.6496 17.415 62.0296 16.905 62.7896 16.905H85.3196C86.0996 16.905 86.4796 17.415 86.4596 18.435C86.4596 19.435 86.0796 19.935 85.3196 19.935H62.7896Z" fill="#E67E22"/>
<path d="M100.093 16.605C100.093 17.065 99.953 17.485 99.673 17.865C99.413 18.225 98.923 18.405 98.203 18.405H88.483C87.723 18.405 87.343 17.905 87.343 16.905C87.363 15.885 87.743 15.375 88.483 15.375H96.253C96.393 15.375 96.473 15.345 96.493 15.285C96.513 15.225 96.523 15.155 96.523 15.075V11.025C96.523 10.065 97.113 9.58499 98.293 9.58499C99.493 9.58499 100.093 10.065 100.093 11.025V16.605ZM108.313 16.515C108.313 17.475 107.713 17.955 106.513 17.955C105.333 17.955 104.743 17.475 104.743 16.515V8.29499C104.743 8.21499 104.733 8.14499 104.713 8.08499C104.693 8.02499 104.613 7.99499 104.473 7.99499H90.733C89.993 7.99499 89.613 7.49499 89.593 6.49499C89.593 5.47499 89.973 4.96499 90.733 4.96499H106.423C107.143 4.96499 107.633 5.15499 107.893 5.53499C108.173 5.89499 108.313 6.30499 108.313 6.76499V16.515ZM94.183 30.405C93.403 31.165 92.553 31.165 91.633 30.405C90.733 29.645 90.673 28.905 91.453 28.185L99.883 20.055C100.103 19.835 100.353 19.685 100.633 19.605C100.913 19.525 101.193 19.485 101.473 19.485C101.753 19.485 102.033 19.525 102.313 19.605C102.613 19.685 102.873 19.835 103.093 20.055L111.523 28.185C112.283 28.925 112.203 29.655 111.283 30.375C110.383 31.115 109.553 31.125 108.793 30.405L101.503 23.175L94.183 30.405Z" fill="#E67E22"/>
<path d="M25.5313 16.235C25.5313 17.195 24.9313 17.675 23.7313 17.675C22.5513 17.675 21.9613 17.195 21.9613 16.235V5.46503C21.9613 4.50502 22.5513 4.02502 23.7313 4.02502C24.9313 4.02502 25.5313 4.50502 25.5313 5.46503V16.235ZM31.1413 10.565C31.1413 11.205 30.9113 11.755 30.4513 12.215C30.0113 12.655 29.4713 12.875 28.8313 12.875C28.1913 12.875 27.6413 12.655 27.1813 12.215C26.7413 11.755 26.5213 11.205 26.5213 10.565C26.5213 9.92502 26.7413 9.38502 27.1813 8.94503C27.6413 8.48503 28.1913 8.25503 28.8313 8.25503C29.4713 8.25503 30.0113 8.48503 30.4513 8.94503C30.9113 9.38502 31.1413 9.92502 31.1413 10.565Z" fill="#E67E22"/>
<path d="M28.9213 18.025H14.1013C13.4386 18.025 12.9808 18.7823 12.9628 19.4447C12.9618 19.4808 12.9613 19.5175 12.9613 19.555C12.9813 20.555 13.3613 21.055 14.1013 21.055H26.9713C27.1113 21.055 27.1913 21.085 27.2113 21.145C27.2313 21.205 27.2413 21.275 27.2413 21.355V22.585C27.2413 22.665 27.2313 22.735 27.2113 22.795C27.1913 22.855 27.1113 22.885 26.9713 22.885H14.8813C14.1613 22.885 13.6613 23.075 13.3813 23.455C13.1213 23.815 12.9913 24.225 12.9913 24.685V28.975C12.9913 29.435 13.1213 29.845 13.3813 30.205C13.6613 30.585 14.1613 30.775 14.8813 30.775H30.4513C31.1913 30.775 31.5613 30.265 31.5613 29.245C31.5813 28.245 31.2113 27.745 30.4513 27.745H16.8313C16.6913 27.745 16.6113 27.715 16.5913 27.655C16.5713 27.595 16.5613 27.525 16.5613 27.445V26.215C16.5613 26.135 16.5713 26.065 16.5913 26.005C16.6113 25.945 16.6913 25.915 16.8313 25.915H28.9213C29.6413 25.915 30.1313 25.735 30.3913 25.375C30.6713 24.995 30.8113 24.575 30.8113 24.115V19.825C30.8113 19.365 30.6713 18.955 30.3913 18.595C30.1313 18.215 29.6413 18.025 28.9213 18.025Z" fill="#E67E22"/>
</svg>
