<svg width="112" height="31" viewBox="0 0 112 31" fill="none" xmlns="http://www.w3.org/2000/svg">
<path d="M10.4278 7.67123L15.8285 1.69839C16.3017 1.17501 17.1097 1.13436 17.6331 1.60761L17.9979 1.93751C18.5213 2.41075 18.5619 3.21868 18.0887 3.74207L15.8168 6.25465L13.5449 8.76724C13.0716 9.29062 12.2637 9.33126 11.7403 8.85801L11.5579 8.69307L10.4278 7.67123ZM10.4278 7.67123L1.60788 17.4255C1.06493 18.026 1.2102 18.9736 1.90809 19.3838L2.08279 19.4865C2.20645 19.5592 2.34147 19.6106 2.48218 19.6384L4.86655 20.1103C6.06231 20.347 7.28173 20.1455 8.29624 19.5435L10.2488 18.3851C10.3589 18.3197 10.4586 18.2382 10.5445 18.1432L14.8446 13.3875C15.3179 12.8641 15.2772 12.0562 14.7539 11.5829L10.4278 7.67123Z" stroke="#E67E22" stroke-width="2.55526" stroke-linecap="round"/>
<path d="M60.2354 14.7407C60.2354 15.3807 60.0054 15.9307 59.5454 16.3907C59.1054 16.8307 58.5654 17.0507 57.9254 17.0507C57.2854 17.0507 56.7354 16.8307 56.2754 16.3907C55.8354 15.9307 55.6154 15.3807 55.6154 14.7407C55.6154 14.1007 55.8354 13.5607 56.2754 13.1207C56.7354 12.6607 57.2854 12.4307 57.9254 12.4307C58.5654 12.4307 59.1054 12.6607 59.5454 13.1207C60.0054 13.5607 60.2354 14.1007 60.2354 14.7407ZM54.6254 28.0907C54.6254 29.0507 54.0254 29.5307 52.8254 29.5307C51.6454 29.5307 51.0554 29.0507 51.0554 28.0907V5.47069C51.0554 4.51069 51.6454 4.03069 52.8254 4.03069C54.0254 4.03069 54.6254 4.51069 54.6254 5.47069V28.0907ZM34.8554 26.5607C33.7154 26.9807 32.9354 26.7307 32.5154 25.8107C32.1154 24.8907 32.3154 24.2607 33.1154 23.9207C35.3154 22.9807 37.6254 21.4207 40.0454 19.2407C42.4854 17.0407 43.7054 14.5207 43.7054 11.6807V8.02069C43.7054 7.94069 43.6954 7.87069 43.6754 7.81069C43.6554 7.75069 43.5754 7.72069 43.4354 7.72069H34.1654C33.4254 7.72069 33.0454 7.22069 33.0254 6.22069C33.0254 5.20069 33.4054 4.69069 34.1654 4.69069H45.3854C46.1054 4.69069 46.5954 4.88069 46.8554 5.26069C47.1354 5.62069 47.2754 6.03069 47.2754 6.49069V12.6107C47.2754 14.7107 46.2654 17.1807 44.2454 20.0207C42.2254 22.8407 39.0954 25.0207 34.8554 26.5607Z" fill="#E67E22"/>
<path d="M66.5837 13.9307C65.8637 13.9307 65.3637 13.7507 65.0837 13.3907C64.8237 13.0107 64.6937 12.5907 64.6937 12.1307V5.56069C64.6937 4.60069 65.2837 4.12069 66.4637 4.12069C67.6637 4.12069 68.2637 4.60069 68.2637 5.56069V10.6007C68.2637 10.6807 68.2737 10.7507 68.2937 10.8107C68.3137 10.8707 68.3937 10.9007 68.5337 10.9007H82.2137C82.9937 10.9007 83.3737 11.4107 83.3537 12.4307C83.3337 13.4307 82.9437 13.9307 82.1837 13.9307H66.5837ZM68.4137 30.2207C67.6937 30.2207 67.1937 30.0307 66.9137 29.6507C66.6537 29.2907 66.5237 28.8807 66.5237 28.4207V22.2107C66.5237 21.2507 67.1137 20.7707 68.2937 20.7707C69.4937 20.7707 70.0937 21.2507 70.0937 22.2107V26.8907C70.0937 26.9707 70.1037 27.0407 70.1237 27.1007C70.1437 27.1607 70.2237 27.1907 70.3637 27.1907H83.5337C84.3137 27.1907 84.6937 27.7007 84.6737 28.7207C84.6537 29.7207 84.2637 30.2207 83.5037 30.2207H68.4137ZM62.3837 19.6607C61.6437 19.6607 61.2637 19.1607 61.2437 18.1607C61.2437 17.1407 61.6237 16.6307 62.3837 16.6307H84.9137C85.6937 16.6307 86.0737 17.1407 86.0537 18.1607C86.0537 19.1607 85.6737 19.6607 84.9137 19.6607H62.3837Z" fill="#E67E22"/>
<path d="M99.6871 16.3307C99.6871 16.7907 99.5471 17.2107 99.2671 17.5907C99.0071 17.9507 98.5171 18.1307 97.7971 18.1307H88.0771C87.3171 18.1307 86.9371 17.6307 86.9371 16.6307C86.9571 15.6107 87.3371 15.1007 88.0771 15.1007H95.8471C95.9871 15.1007 96.0671 15.0707 96.0871 15.0107C96.1071 14.9507 96.1171 14.8807 96.1171 14.8007V10.7507C96.1171 9.79069 96.7071 9.31069 97.8871 9.31069C99.0871 9.31069 99.6871 9.79069 99.6871 10.7507V16.3307ZM107.907 16.2407C107.907 17.2007 107.307 17.6807 106.107 17.6807C104.927 17.6807 104.337 17.2007 104.337 16.2407V8.02069C104.337 7.94069 104.327 7.87069 104.307 7.81069C104.287 7.75069 104.207 7.72069 104.067 7.72069H90.3271C89.5871 7.72069 89.2071 7.22069 89.1871 6.22069C89.1871 5.20069 89.5671 4.69069 90.3271 4.69069H106.017C106.737 4.69069 107.227 4.88069 107.487 5.26069C107.767 5.62069 107.907 6.03069 107.907 6.49069V16.2407ZM93.7771 30.1307C92.9971 30.8907 92.1471 30.8907 91.2271 30.1307C90.3271 29.3707 90.2671 28.6307 91.0471 27.9107L99.4771 19.7807C99.6971 19.5607 99.9471 19.4107 100.227 19.3307C100.507 19.2507 100.787 19.2107 101.067 19.2107C101.347 19.2107 101.627 19.2507 101.907 19.3307C102.207 19.4107 102.467 19.5607 102.687 19.7807L111.117 27.9107C111.877 28.6507 111.797 29.3807 110.877 30.1007C109.977 30.8407 109.147 30.8507 108.387 30.1307L101.097 22.9007L93.7771 30.1307Z" fill="#E67E22"/>
<path d="M25.1257 15.9607C25.1257 16.9207 24.5257 17.4007 23.3257 17.4007C22.1457 17.4007 21.5557 16.9207 21.5557 15.9607V5.19073C21.5557 4.23073 22.1457 3.75072 23.3257 3.75072C24.5257 3.75072 25.1257 4.23073 25.1257 5.19073V15.9607ZM30.7357 10.2907C30.7357 10.9307 30.5057 11.4807 30.0457 11.9407C29.6057 12.3807 29.0657 12.6007 28.4257 12.6007C27.7857 12.6007 27.2357 12.3807 26.7757 11.9407C26.3357 11.4807 26.1157 10.9307 26.1157 10.2907C26.1157 9.65072 26.3357 9.11072 26.7757 8.67073C27.2357 8.21073 27.7857 7.98073 28.4257 7.98073C29.0657 7.98073 29.6057 8.21073 30.0457 8.67073C30.5057 9.11072 30.7357 9.65072 30.7357 10.2907Z" fill="#E67E22"/>
<path d="M28.5157 17.7507H13.6957C13.033 17.7507 12.5751 18.508 12.5571 19.1704C12.5562 19.2065 12.5557 19.2432 12.5557 19.2807C12.5757 20.2807 12.9557 20.7807 13.6957 20.7807H26.5657C26.7057 20.7807 26.7857 20.8107 26.8057 20.8707C26.8257 20.9307 26.8357 21.0007 26.8357 21.0807V22.3107C26.8357 22.3907 26.8257 22.4607 26.8057 22.5207C26.7857 22.5807 26.7057 22.6107 26.5657 22.6107H14.4757C13.7557 22.6107 13.2557 22.8007 12.9757 23.1807C12.7157 23.5407 12.5857 23.9507 12.5857 24.4107V28.7007C12.5857 29.1607 12.7157 29.5707 12.9757 29.9307C13.2557 30.3107 13.7557 30.5007 14.4757 30.5007H30.0457C30.7857 30.5007 31.1557 29.9907 31.1557 28.9707C31.1757 27.9707 30.8057 27.4707 30.0457 27.4707H16.4257C16.2857 27.4707 16.2057 27.4407 16.1857 27.3807C16.1657 27.3207 16.1557 27.2507 16.1557 27.1707V25.9407C16.1557 25.8607 16.1657 25.7907 16.1857 25.7307C16.2057 25.6707 16.2857 25.6407 16.4257 25.6407H28.5157C29.2357 25.6407 29.7257 25.4607 29.9857 25.1007C30.2657 24.7207 30.4057 24.3007 30.4057 23.8407V19.5507C30.4057 19.0907 30.2657 18.6807 29.9857 18.3207C29.7257 17.9407 29.2357 17.7507 28.5157 17.7507Z" fill="#E67E22"/>
</svg>
