<svg width="24" height="24" viewBox="0 0 24 24" fill="none" xmlns="http://www.w3.org/2000/svg">
<path d="M21.2 11.6C21.2 16.9019 16.9019 21.2 11.6 21.2C6.29807 21.2 2 16.9019 2 11.6C2 6.29807 6.29807 2 11.6 2C16.9019 2 21.2 6.29807 21.2 11.6Z" stroke="#E67E22" stroke-width="2" stroke-linecap="round" stroke-linejoin="round"/>
<path d="M14.6964 16.2876C14.5124 16.2876 14.3404 16.2596 14.1804 16.2036C14.0204 16.1476 13.8684 16.0596 13.7244 15.9396C13.5884 15.8116 13.4404 15.6436 13.2804 15.4356C13.1204 15.2116 12.9764 14.9556 12.8484 14.6676C12.7204 14.3796 12.6004 14.0756 12.4884 13.7556C12.3844 13.4356 12.2844 13.1076 12.1884 12.7716C12.0924 12.4356 11.9964 12.1156 11.9004 11.8116C11.8044 11.4996 11.7004 11.2116 11.5884 10.9476C11.4764 10.6836 11.3524 10.4676 11.2164 10.2996L11.8164 10.4916C11.5844 10.7636 11.3644 11.0796 11.1564 11.4396C10.9564 11.7996 10.7684 12.1956 10.5924 12.6276C10.4164 13.0516 10.2564 13.5076 10.1124 13.9956C9.97644 14.4756 9.85244 14.9676 9.74044 15.4716C9.67644 15.7276 9.56844 15.9196 9.41644 16.0476C9.27244 16.1756 9.06444 16.2396 8.79244 16.2396C8.68844 16.2396 8.56844 16.2156 8.43244 16.1676C8.30444 16.1276 8.17244 16.0356 8.03644 15.8916C7.90844 15.7396 7.78444 15.5156 7.66444 15.2196C7.50444 14.8356 7.34844 14.4276 7.19644 13.9956C7.05244 13.5636 6.91644 13.1196 6.78844 12.6636C6.66844 12.1996 6.56044 11.7316 6.46444 11.2596C6.36844 10.7876 6.28444 10.3196 6.21244 9.85561C6.14844 9.38361 6.10044 8.93161 6.06844 8.49961C6.05244 8.25161 6.11244 8.03961 6.24844 7.86361C6.38444 7.68761 6.62844 7.59961 6.98044 7.59961C7.34844 7.59961 7.62444 7.72361 7.80844 7.97161C7.99244 8.21161 8.09644 8.50761 8.12044 8.85961C8.14444 9.23561 8.18044 9.60361 8.22844 9.96361C8.27644 10.3236 8.33244 10.6796 8.39644 11.0316C8.46044 11.3756 8.53644 11.7236 8.62444 12.0756C8.72044 12.4276 8.83244 12.7916 8.96044 13.1676L8.56444 13.2996C8.70844 12.7156 8.87244 12.1676 9.05644 11.6556C9.24844 11.1436 9.46044 10.6716 9.69244 10.2396C9.93244 9.79961 10.1924 9.41561 10.4724 9.08761C10.6724 8.84761 10.8844 8.65561 11.1084 8.51161C11.3324 8.36761 11.6004 8.29561 11.9124 8.29561C12.1604 8.29561 12.3764 8.37961 12.5604 8.54761C12.7524 8.70761 12.9444 8.99961 13.1364 9.42361C13.2564 9.68761 13.3604 10.0036 13.4484 10.3716C13.5364 10.7396 13.6324 11.1236 13.7364 11.5236C13.8404 11.9156 13.9564 12.2996 14.0844 12.6756C14.2204 13.0436 14.3924 13.3676 14.6004 13.6476L13.9764 13.6836C14.0884 13.3716 14.1844 13.0276 14.2644 12.6516C14.3444 12.2676 14.4164 11.8716 14.4804 11.4636C14.5444 11.0556 14.6084 10.6556 14.6724 10.2636C14.7364 9.87161 14.8004 9.51161 14.8644 9.18361C14.9284 8.85561 15.0084 8.58361 15.1044 8.36761C15.2164 8.08761 15.3484 7.89161 15.5004 7.77961C15.6604 7.65961 15.8604 7.59961 16.1004 7.59961C16.4044 7.59961 16.6324 7.67961 16.7844 7.83961C16.9364 7.99961 17.0204 8.20761 17.0364 8.46361C17.0524 8.71961 17.0164 8.99561 16.9284 9.29161C16.8324 9.63561 16.7404 10.0156 16.6524 10.4316C16.5724 10.8476 16.4924 11.2876 16.4124 11.7516C16.3324 12.2076 16.2484 12.6676 16.1604 13.1316C16.0724 13.5876 15.9724 14.0316 15.8604 14.4636C15.7564 14.8876 15.6324 15.2796 15.4884 15.6396C15.3844 15.8956 15.2604 16.0676 15.1164 16.1556C14.9804 16.2436 14.8404 16.2876 14.6964 16.2876Z" fill="#E67E22"/>
<path d="M4.60059 10.1436H18.6006" stroke="#E67E22" stroke-width="1.5" stroke-linecap="round"/>
</svg>
